<svg xmlns="http://www.w3.org/2000/svg" xmlns:xlink="http://www.w3.org/1999/xlink" version="1.1"
    x="0px" y="0px" viewBox="0 0 100 100" enable-background="new 0 0 100 100" xml:space="preserve"><g><path d="M74.653,17.25H25.347c-6.066,0-11.001,4.935-11.001,11.001v43.498c0,6.066,4.935,11.001,11.001,11.001h49.307   c6.066,0,11.001-4.935,11.001-11.001V28.251C85.654,22.185,80.72,17.25,74.653,17.25z M80.654,71.749   c0,3.309-2.692,6.001-6.001,6.001H25.347c-3.309,0-6.001-2.692-6.001-6.001V28.251c0-3.309,2.692-6.001,6.001-6.001h49.307   c3.309,0,6.001,2.692,6.001,6.001V71.749z"></path><path
    d="M65.875,47.5H52.5V34.125c0-1.381-1.119-2.5-2.5-2.5s-2.5,1.119-2.5,2.5V47.5H34.125c-1.381,0-2.5,1.119-2.5,2.5   s1.119,2.5,2.5,2.5H47.5v13.375c0,1.381,1.119,2.5,2.5,2.5s2.5-1.119,2.5-2.5V52.5h13.375c1.381,0,2.5-1.119,2.5-2.5   S67.256,47.5,65.875,47.5z"></path></g></svg>