<svg xmlns="http://www.w3.org/2000/svg" xmlns:xlink="http://www.w3.org/1999/xlink" version="1.1"
    x="0px" y="0px" viewBox="0 0 100 100" enable-background="new 0 0 100 100" xml:space="preserve"><g><path d="M65.875,47.5H52.5V34.125c0-1.381-1.119-2.5-2.5-2.5s-2.5,1.119-2.5,2.5V47.5H34.125c-1.381,0-2.5,1.119-2.5,2.5   s1.119,2.5,2.5,2.5H47.5v13.375c0,1.381,1.119,2.5,2.5,2.5s2.5-1.119,2.5-2.5V52.5h13.375c1.381,0,2.5-1.119,2.5-2.5   S67.256,47.5,65.875,47.5z"></path><path
    d="M65.417,13.333H34.583c-12.406,0-22.5,10.093-22.5,22.5v28.333c0,12.407,10.094,22.5,22.5,22.5h30.834   c12.406,0,22.5-10.093,22.5-22.5V35.833C87.917,23.427,77.823,13.333,65.417,13.333z M82.917,64.167c0,9.649-7.851,17.5-17.5,17.5   H34.583c-9.649,0-17.5-7.851-17.5-17.5V35.833c0-9.649,7.851-17.5,17.5-17.5h30.834c9.649,0,17.5,7.851,17.5,17.5V64.167z"></path></g></svg>