<svg xmlns="http://www.w3.org/2000/svg" xmlns:xlink="http://www.w3.org/1999/xlink" version="1.1"
    x="0px" y="0px" viewBox="0 0 100 100" enable-background="new 0 0 100 100" xml:space="preserve"><g><path d="M76.998,14.373H23.002c-6.512,0-11.81,5.298-11.81,11.81v47.634c0,6.512,5.298,11.81,11.81,11.81h53.996   c6.512,0,11.81-5.298,11.81-11.81V26.183C88.808,19.671,83.51,14.373,76.998,14.373z M83.808,73.817c0,3.755-3.055,6.81-6.81,6.81   H23.002c-3.755,0-6.81-3.055-6.81-6.81V26.183c0-3.755,3.055-6.81,6.81-6.81h53.996c3.755,0,6.81,3.055,6.81,6.81V73.817z"></path><path
    d="M65.875,47.5H52.5V34.125c0-1.381-1.119-2.5-2.5-2.5s-2.5,1.119-2.5,2.5V47.5H34.125c-1.381,0-2.5,1.119-2.5,2.5   s1.119,2.5,2.5,2.5H47.5v13.375c0,1.381,1.119,2.5,2.5,2.5s2.5-1.119,2.5-2.5V52.5h13.375c1.381,0,2.5-1.119,2.5-2.5   S67.256,47.5,65.875,47.5z"></path></g></svg>