<svg xmlns="http://www.w3.org/2000/svg" xmlns:xlink="http://www.w3.org/1999/xlink" version="1.1"
    x="0px" y="0px" viewBox="0 0 100 100" style="enable-background:new 0 0 100 100;"
    xml:space="preserve"><g><path d="M70,46H54V30c0-2.2-1.8-4-4-4s-4,1.8-4,4v16H30c-2.2,0-4,1.8-4,4s1.8,4,4,4h16v16c0,2.2,1.8,4,4,4s4-1.8,4-4V54h16   c2.2,0,4-1.8,4-4S72.2,46,70,46z"></path><path
    d="M93,21.4C93,13.5,86.5,7,78.6,7H21.4C13.5,7,7,13.5,7,21.4v57.2c0,8,6.5,14.4,14.4,14.4h57.2c8,0,14.4-6.5,14.4-14.4V21.4z    M85,78.6c0,3.5-2.9,6.4-6.4,6.4H21.4c-3.5,0-6.4-2.9-6.4-6.4V21.4c0-3.5,2.9-6.4,6.4-6.4h57.2c3.5,0,6.4,2.9,6.4,6.4V78.6z"></path></g></svg>