<svg xmlns="http://www.w3.org/2000/svg" xmlns:xlink="http://www.w3.org/1999/xlink" version="1.1"
    x="0px" y="0px" viewBox="0 0 100 100" style="enable-background:new 0 0 100 100;"
    xml:space="preserve"><path d="M59.4,94H40.6C21.5,94,6,78.5,6,59.4V40.6C6,21.5,21.5,6,40.6,6h18.7C78.5,6,94,21.5,94,40.6v18.7C94,78.5,78.5,94,59.4,94z   M40.6,14.3c-14.6,0-26.4,11.8-26.4,26.4v18.7c0,14.6,11.8,26.4,26.4,26.4h18.7c14.6,0,26.4-11.8,26.4-26.4V40.6  c0-14.6-11.8-26.4-26.4-26.4H40.6z M53.8,66.5v-33c0-2.1-1.7-3.8-3.8-3.8s-3.8,1.7-3.8,3.8v33c0,2.1,1.7,3.8,3.8,3.8  S53.8,68.6,53.8,66.5z M70.3,50c0-2.1-1.7-3.8-3.8-3.8h-33c-2.1,0-3.8,1.7-3.8,3.8s1.7,3.8,3.8,3.8h33C68.6,53.8,70.3,52.1,70.3,50z  "></path></svg>