<svg xmlns="http://www.w3.org/2000/svg" xmlns:xlink="http://www.w3.org/1999/xlink" version="1.1"
    x="0px" y="0px" viewBox="0 0 100 100" enable-background="new 0 0 100 100" xml:space="preserve"><g><path d="M74.65,21.25h-49.3c-3.86,0-7,3.14-7,7v43.5c0,3.86,3.14,7,7,7h49.3c3.86,0,7-3.14,7-7v-43.5   C81.65,24.39,78.51,21.25,74.65,21.25z M65.88,51.5H51.5v14.38c0,0.82-0.67,1.5-1.5,1.5s-1.5-0.68-1.5-1.5V51.5H34.12   c-0.82,0-1.5-0.67-1.5-1.5c0-0.83,0.68-1.5,1.5-1.5H48.5V34.12c0-0.82,0.67-1.5,1.5-1.5s1.5,0.68,1.5,1.5V48.5h14.38   c0.82,0,1.5,0.67,1.5,1.5C67.38,50.83,66.7,51.5,65.88,51.5z"></path></g></svg>