<svg fill="#000000" xmlns="http://www.w3.org/2000/svg" viewBox="0 0 512 512" width="64px"
    height="64px">
    <path
        d="M 257 76 C 213.991 76 179 110.991 179 154 C 179 197.009 213.991 232 257 232 C 300.01 232 335 197.009 335 154 C 335 110.991 300.01 76 257 76 z M 257 96 C 288.981 96 315 122.019 315 154 C 315 185.981 288.981 212 257 212 C 225.019 212 199 185.981 199 154 C 199 122.019 225.019 96 257 96 z M 70 170 C 64.477 170 60 174.477 60 180 L 60 205 L 35 205 C 29.477 205 25 209.477 25 215 C 25 220.523 29.477 225 35 225 L 60 225 L 60 250 C 60 255.523 64.477 260 70 260 C 75.523 260 80 255.523 80 250 L 80 225 L 105 225 C 110.523 225 115 220.523 115 215 C 115 209.477 110.523 205 105 205 L 80 205 L 80 180 C 80 174.477 75.523 170 70 170 z M 164.82227 246 C 125.77127 246 94 277.77127 94 316.82227 L 94 410 C 94 415.522 98.477 420 104 420 C 109.523 420 114 415.522 114 410 L 114 316.82227 C 114 288.79927 136.79927 266 164.82227 266 L 349.17773 266 C 377.20073 266 400 288.79927 400 316.82227 L 400 410 C 400 415.522 404.478 420 410 420 C 415.522 420 420 415.522 420 410 L 420 316.82227 C 420 277.77127 388.22973 246 349.17773 246 L 164.82227 246 z" />
</svg>