<svg width="32" height="32" viewBox="0 0 32 32" fill="none" xmlns="http://www.w3.org/2000/svg">
    <g filter="url(#filter0_b_599_4535)">
        <rect width="32" height="32" rx="13" fill="black" fill-opacity="0.4" />
        <rect x="0.5" y="0.5" width="31" height="31" rx="12.5" stroke="white"
            stroke-opacity="0.1" />
    </g>
    <g opacity="0.4">
        <path fill-rule="evenodd" clip-rule="evenodd"
            d="M16 8C16.5523 8 17 8.44772 17 9V15H23C23.5523 15 24 15.4477 24 16C24 16.5523 23.5523 17 23 17H17L17 23C17 23.5523 16.5523 24 16 24C15.4477 24 15 23.5523 15 23L15 17H9C8.44772 17 8 16.5523 8 16C8 15.4477 8.44772 15 9 15L15 15L15 9C15 8.44772 15.4477 8 16 8Z"
            fill="white" />
    </g>
    <defs>
        <filter id="filter0_b_599_4535" x="-4" y="-4" width="40" height="40"
            filterUnits="userSpaceOnUse" color-interpolation-filters="sRGB">
            <feFlood flood-opacity="0" result="BackgroundImageFix" />
            <feGaussianBlur in="BackgroundImageFix" stdDeviation="2" />
            <feComposite in2="SourceAlpha" operator="in" result="effect1_backgroundBlur_599_4535" />
            <feBlend mode="normal" in="SourceGraphic" in2="effect1_backgroundBlur_599_4535"
                result="shape" />
        </filter>
    </defs>
</svg>
