<svg width="40" height="40" viewBox="0 0 40 40" fill="none" xmlns="http://www.w3.org/2000/svg">
    <rect width="40" height="40" rx="16" transform="matrix(-1 0 0 1 40 0)" fill="#F1F1F1" />
    <path
        d="M23 10C25.6234 10 27.75 12.1266 27.75 14.75C27.75 17.3734 25.6234 19.5 23 19.5C20.3766 19.5 18.25 17.3734 18.25 14.75C18.25 12.1266 20.3766 10 23 10Z"
        fill="#8C8B8C" />
    <path
        d="M12.25 16.75C12.25 16.3358 12.5858 16 13 16C13.4142 16 13.75 16.3358 13.75 16.75V19H16C16.4142 19 16.75 19.3358 16.75 19.75C16.75 20.1642 16.4142 20.5 16 20.5H13.75V22.75C13.75 23.1642 13.4142 23.5 13 23.5C12.5858 23.5 12.25 23.1642 12.25 22.75V20.5H10C9.58579 20.5 9.25 20.1642 9.25 19.75C9.25 19.3358 9.58579 19 10 19H12.25V16.75Z"
        fill="#8C8B8C" />
    <path
        d="M26 21C28.6234 21 30.75 23.1266 30.75 25.75C30.75 28.3734 28.6234 30.5 26 30.5H20C17.3766 30.5 15.25 28.3734 15.25 25.75C15.25 23.1266 17.3766 21 20 21H26Z"
        fill="#8C8B8C" />
</svg>
