<svg xmlns="http://www.w3.org/2000/svg" xmlns:xlink="http://www.w3.org/1999/xlink" version="1.1"
    x="0px" y="0px" viewBox="0 0 100 100" enable-background="new 0 0 100 100" xml:space="preserve"><g><path d="M65.42,17.33H34.58c-10.2,0-18.5,8.3-18.5,18.5v28.34c0,10.2,8.3,18.5,18.5,18.5h30.84c10.2,0,18.5-8.3,18.5-18.5V35.83   C83.92,25.63,75.62,17.33,65.42,17.33z M65.88,51.5H51.5v14.38c0,0.82-0.67,1.5-1.5,1.5s-1.5-0.68-1.5-1.5V51.5H34.12   c-0.82,0-1.5-0.67-1.5-1.5c0-0.83,0.68-1.5,1.5-1.5H48.5V34.12c0-0.82,0.67-1.5,1.5-1.5s1.5,0.68,1.5,1.5V48.5h14.38   c0.82,0,1.5,0.67,1.5,1.5C67.38,50.83,66.7,51.5,65.88,51.5z"></path></g></svg>