<svg xmlns="http://www.w3.org/2000/svg" xmlns:xlink="http://www.w3.org/1999/xlink" version="1.1"
    x="0px" y="0px" viewBox="0 0 100 100" enable-background="new 0 0 100 100" xml:space="preserve"><g><path d="M73.5,15.036h-47c-1.381,0-2.5,1.119-2.5,2.5v64.928c0,0.97,0.562,1.853,1.44,2.264c0.878,0.411,1.916,0.277,2.661-0.345   L50,66.113l21.898,18.27c0.458,0.383,1.027,0.581,1.602,0.581c0.359,0,0.721-0.078,1.059-0.236c0.879-0.411,1.44-1.294,1.44-2.264   V17.536C76,16.155,74.881,15.036,73.5,15.036z M71,77.122L51.602,60.938c-0.464-0.387-1.033-0.581-1.602-0.581   s-1.138,0.193-1.602,0.581L29,77.122V20.036h42V77.122z"></path></g></svg>