<svg width="24" height="24" viewBox="0 0 24 24" fill="none" xmlns="http://www.w3.org/2000/svg">
    <path
        d="M12 9.74825C10.2051 9.74825 8.75 11.2033 8.75 12.9982C8.75 14.7932 10.2051 16.2482 12 16.2482C13.7949 16.2482 15.25 14.7932 15.25 12.9982C15.25 11.2033 13.7949 9.74825 12 9.74825Z"
        fill="white" />
    <path fill-rule="evenodd" clip-rule="evenodd"
        d="M15.6501 2.23934C13.5685 0.388969 10.4315 0.388969 8.34986 2.23934L8.1341 2.43113C7.54195 2.95749 6.77721 3.24824 5.98493 3.24824C3.3699 3.24824 1.25 5.36814 1.25 7.98317V13.0435C1.24999 14.88 1.24999 16.3196 1.37373 17.4618C1.50001 18.6273 1.76232 19.5717 2.34815 20.378C2.70281 20.8661 3.13209 21.2954 3.62024 21.6501C4.42656 22.2359 5.37094 22.4982 6.53648 22.6245C7.67859 22.7483 9.11817 22.7482 10.9547 22.7482H13.0453C14.8818 22.7482 16.3214 22.7483 17.4635 22.6245C18.6291 22.4982 19.5734 22.2359 20.3798 21.6501C20.8679 21.2954 21.2972 20.8661 21.6518 20.378C22.2377 19.5717 22.5 18.6273 22.6263 17.4618C22.75 16.3196 22.75 14.8801 22.75 13.0436V7.98317C22.75 5.36814 20.6301 3.24824 18.0151 3.24824C17.2228 3.24824 16.4581 2.95749 15.8659 2.43113L15.6501 2.23934ZM7.25 12.9982C7.25 10.3749 9.37665 8.24825 12 8.24825C14.6234 8.24825 16.75 10.3749 16.75 12.9982C16.75 15.6216 14.6234 17.7482 12 17.7482C9.37665 17.7482 7.25 15.6216 7.25 12.9982ZM18 8.99829C17.4477 8.99829 17 8.55058 17 7.99829C17 7.44601 17.4477 6.99829 18 6.99829C18.5523 6.99829 19 7.44601 19 7.99829C19 8.55058 18.5523 8.99829 18 8.99829Z"
        fill="white" />
</svg>
