<svg fill="#000000" xmlns="http://www.w3.org/2000/svg" viewBox="0 0 512 512" width="64px"
    height="64px">
    <path
        d="M 187.5 60 C 166.822 60 150 76.822 150 97.5 L 150 110 L 88 110 C 61.533 110 40 131.533 40 158 L 40 380 C 40 406.468 61.533 428 88 428 L 422 428 C 448.468 428 470 406.468 470 380 L 470 158 C 470 131.533 448.468 110 422 110 L 360 110 L 360 97.5 C 360 76.822 343.178 60 322.5 60 L 187.5 60 z M 187.5 80 L 322.5 80 C 332.149 80 340 87.851 340 97.5 L 340 120 C 340 125.523 344.478 130 350 130 L 422 130 C 437.439 130 450 142.561 450 158 L 450 380 C 450 395.439 437.439 408 422 408 L 88 408 C 72.561 408 60 395.439 60 380 L 60 158 C 60 142.561 72.561 130 88 130 L 160 130 C 165.523 130 170 125.523 170 120 L 170 97.5 C 170 87.851 177.851 80 187.5 80 z M 255 170 C 199.86 170 155 214.86 155 270 C 155 325.141 199.86 370 255 370 C 310.141 370 355 325.141 355 270 C 355 214.86 310.141 170 255 170 z M 255 190 C 299.112 190 335 225.888 335 270 C 335 314.112 299.112 350 255 350 C 210.888 350 175 314.112 175 270 C 175 225.888 210.888 190 255 190 z" />
</svg>