<svg xmlns="http://www.w3.org/2000/svg" data-name="Layer 1" viewBox="0 0 500 500" x="0px" y="0px">
    <path
        d="M493.41,295.36a7.5,7.5,0,0,0-1.82-14.89l-10.51,1.29c-.23-26.74-3.48-56.91-9.49-87.8-12.86-66.15-35.78-123.73-57-143.3a24.72,24.72,0,0,0-22.41-6.43c-16.55,3.38-35.09,22.3-56.68,57.85-11.56,19-20.58,37.38-24.46,45.55H190.16c-3.88-8.17-12.9-26.5-24.47-45.55C144.11,66.53,125.57,47.61,109,44.23A24.74,24.74,0,0,0,86.6,50.66c-21.24,19.57-44.16,77.15-57,143.3-6,30.94-9.26,61.17-9.48,87.94L8.41,280.47a7.5,7.5,0,0,0-1.82,14.89L20.31,297a241.28,241.28,0,0,0,3.4,33.36l-13.07,3.12a7.5,7.5,0,0,0,3.48,14.59L27,345a115.18,115.18,0,0,0,8.19,21.72c18.06,35.52,49.85,60.75,94.47,75,41,13.06,84.82,14.58,114.25,14.58,117.15,0,191.87-30.14,222.09-89.56a115.29,115.29,0,0,0,8.12-21.46l11.77,2.81a7.5,7.5,0,1,0,3.48-14.59l-11.95-2.85a241.67,241.67,0,0,0,3.46-33.78ZM456.2,284.79a7.5,7.5,0,0,0,.9,14.95,7.22,7.22,0,0,0,.92-.06l7.72-.94a228.32,228.32,0,0,1-3,28.43l-6.82-1.63a7.5,7.5,0,0,0-3.48,14.6l7,1.67A99.48,99.48,0,0,1,452.62,360c-27.45,54-97.68,81.36-208.72,81.36-28.43,0-70.72-1.44-109.69-13.87-40.66-13-69.48-35.68-85.66-67.49a99.06,99.06,0,0,1-6.92-18.41l5.93-1.41a7.5,7.5,0,0,0-3.48-14.6l-5.7,1.36a226.32,226.32,0,0,1-2.94-28l6.54.79a7.22,7.22,0,0,0,.92.06,7.5,7.5,0,0,0,.9-14.95l-8.69-1.06c0-26,3.08-55.51,9.19-86.91C56.41,134.55,78,79,96.76,61.7a10,10,0,0,1,7-3,11.71,11.71,0,0,1,2.3.25c6.78,1.38,21.87,9.82,46.78,50.82a515,515,0,0,1,25.74,48.47,7.52,7.52,0,0,0,6.84,4.41H315.79a7.52,7.52,0,0,0,6.84-4.41,512.25,512.25,0,0,1,25.74-48.47c24.91-41,40-49.44,46.78-50.82,3.54-.72,6.39.13,9.25,2.77,18.78,17.29,40.36,72.85,52.47,135.12,6.09,31.34,9.14,60.85,9.19,86.77Z"></path>
    <path
        d="M108.1,99.56C95.56,100.48,85,138,90.85,146.79c3.69,5.5,35.81,3.27,41.27-3.07S120.88,98.61,108.1,99.56Z"></path>
    <path
        d="M393.07,99.56c-12.78-1-29.49,37.83-24,44.16s37.59,8.57,41.28,3.07C416.22,138,405.6,100.48,393.07,99.56Z"></path>
    <path
        d="M257.5,312.33V296.89c10.79-2.84,20-11.29,22.71-19.72,3.3-10.33-12.29-15.35-30.21-15.35s-33.51,5-30.21,15.35c2.66,8.35,11.73,16.74,22.39,19.66h.32v15.5c-25.61,3.42-32.5,23.88-32.8,24.83A7.5,7.5,0,1,0,224,341.82a21.78,21.78,0,0,1,5.25-7.62c5.08-4.89,12.07-7.37,20.79-7.37,20.59,0,25.83,14.38,26,14.91a7.5,7.5,0,1,0,14.28-4.58C290,336.21,283.11,315.75,257.5,312.33Z"></path>
    <path
        d="M177.19,249.21a7.5,7.5,0,0,0-7.5,7.5,9.88,9.88,0,0,1-19.75,0,7.5,7.5,0,0,0-15,0,24.88,24.88,0,0,0,49.75,0A7.5,7.5,0,0,0,177.19,249.21Z"></path>
    <path
        d="M357.56,249.21a7.5,7.5,0,0,0-7.5,7.5,9.88,9.88,0,0,1-19.75,0,7.5,7.5,0,0,0-15,0,24.88,24.88,0,0,0,49.75,0A7.5,7.5,0,0,0,357.56,249.21Z"></path>
    <path
        d="M381.32,291.6a7.5,7.5,0,0,0-10.73,0c-10,10.26-11.51,16.95-11.51,20a16.88,16.88,0,0,0,33.76,0C392.84,304.46,385.62,296,381.32,291.6Z"></path>
</svg>