<svg xmlns="http://www.w3.org/2000/svg" xmlns:xlink="http://www.w3.org/1999/xlink" version="1.1"
    x="0px" y="0px" viewBox="0 0 100 100" enable-background="new 0 0 100 100" xml:space="preserve"><g><path d="M75.139,16.521H24.861c-5.109,0-9.266,4.157-9.266,9.267v33.455c0,5.109,4.157,9.267,9.266,9.267h24.184l16.012,14.333   c0.468,0.42,1.065,0.638,1.668,0.638c0.007-0.001,0.013-0.001,0.02,0c1.381,0,2.5-1.119,2.5-2.5c0-0.156-0.014-0.309-0.042-0.457   l-0.671-12.014h6.608c5.109,0,9.266-4.157,9.266-9.267V25.787C84.405,20.678,80.249,16.521,75.139,16.521z M79.405,59.242   c0,2.353-1.914,4.267-4.266,4.267h-9.251c-0.687,0-1.344,0.283-1.816,0.782s-0.718,1.171-0.68,1.857l0.5,8.939L51.667,64.146   c-0.458-0.411-1.052-0.638-1.667-0.638H24.861c-2.353,0-4.266-1.914-4.266-4.267V25.787c0-2.353,1.914-4.267,4.266-4.267h50.278   c2.353,0,4.266,1.914,4.266,4.267V59.242z"></path></g></svg>