<svg fill="#1A1A1A" xmlns="http://www.w3.org/2000/svg" viewBox="0 0 512 512" width="64px"
    height="64px">
    <path
        d="M400,453c-0.747,0-1.501-0.084-2.249-0.256l-90.242-20.826C290.787,436.619,273.473,439,256,439 c-104.766,0-190-85.233-190-190c0-104.766,85.234-190,190-190c104.767,0,190,85.234,190,190 c0,53.525-22.404,104.165-61.739,140.161l24.684,49.366c1.731,3.464,1.309,7.616-1.087,10.659 C405.937,451.626,403.024,453,400,453z M307.229,411.591c0.754,0,1.508,0.085,2.249,0.256l72.083,16.635l-18.637-37.271 c-2.066-4.134-1.032-9.145,2.503-12.122C403.922,346.671,426,299.255,426,249c0-93.738-76.262-170-170-170S86,155.262,86,249 s76.262,170,170,170c16.441,0,32.721-2.354,48.387-6.997C305.313,411.729,306.271,411.591,307.229,411.591z" />
</svg>