<svg width="168" height="57" viewBox="0 0 168 57" fill="none" xmlns="http://www.w3.org/2000/svg">
    <g filter="url(#filter0_d_136_15531)">
        <mask id="path-1-inside-1_136_15531" fill="white">
            <path fill-rule="evenodd" clip-rule="evenodd"
                d="M24 2C12.9543 2 4 10.9543 4 22C4 33.0457 12.9543 42 24 42H77.1593L83.0001 51L88.8409 42H144C155.046 42 164 33.0457 164 22C164 10.9543 155.046 2 144 2H24Z" />
        </mask>
        <path fill-rule="evenodd" clip-rule="evenodd"
            d="M24 2C12.9543 2 4 10.9543 4 22C4 33.0457 12.9543 42 24 42H77.1593L83.0001 51L88.8409 42H144C155.046 42 164 33.0457 164 22C164 10.9543 155.046 2 144 2H24Z"
            fill="white" />
        <path
            d="M77.1593 42L77.9981 41.4556L77.7024 41H77.1593V42ZM83.0001 51L82.1612 51.5444L83.0001 52.8369L83.8389 51.5444L83.0001 51ZM88.8409 42V41H88.2977L88.002 41.4556L88.8409 42ZM5 22C5 11.5066 13.5066 3 24 3V1C12.402 1 3 10.402 3 22H5ZM24 41C13.5066 41 5 32.4934 5 22H3C3 33.598 12.402 43 24 43V41ZM77.1593 41H24V43H77.1593V41ZM83.8389 50.4556L77.9981 41.4556L76.3204 42.5444L82.1612 51.5444L83.8389 50.4556ZM88.002 41.4556L82.1612 50.4556L83.8389 51.5444L89.6797 42.5444L88.002 41.4556ZM144 41H88.8409V43H144V41ZM163 22C163 32.4934 154.493 41 144 41V43C155.598 43 165 33.598 165 22H163ZM144 3C154.493 3 163 11.5066 163 22H165C165 10.402 155.598 1 144 1V3ZM24 3H144V1H24V3Z"
            fill="#F1F1F1" mask="url(#path-1-inside-1_136_15531)" />
    </g>
    <defs>
        <filter id="filter0_d_136_15531" x="0" y="0" width="168" height="57"
            filterUnits="userSpaceOnUse" color-interpolation-filters="sRGB">
            <feFlood flood-opacity="0" result="BackgroundImageFix" />
            <feColorMatrix in="SourceAlpha" type="matrix"
                values="0 0 0 0 0 0 0 0 0 0 0 0 0 0 0 0 0 0 127 0" result="hardAlpha" />
            <feOffset dy="2" />
            <feGaussianBlur stdDeviation="2" />
            <feComposite in2="hardAlpha" operator="out" />
            <feColorMatrix type="matrix" values="0 0 0 0 0 0 0 0 0 0 0 0 0 0 0 0 0 0 0.13 0" />
            <feBlend mode="normal" in2="BackgroundImageFix" result="effect1_dropShadow_136_15531" />
            <feBlend mode="normal" in="SourceGraphic" in2="effect1_dropShadow_136_15531"
                result="shape" />
        </filter>
    </defs>
</svg>
