<svg width="24" height="24" viewBox="0 0 24 24" fill="none" xmlns="http://www.w3.org/2000/svg">
    <path fill-rule="evenodd" clip-rule="evenodd"
        d="M20.2208 5.04252L13.5194 2.29802C12.5491 1.90066 11.4509 1.90066 10.4806 2.29802L3.77925 5.04252C3.30651 5.23612 3 5.68032 3 6.17181V12.6257C3 15.0064 4.20316 17.2406 6.23045 18.6243L10.5054 21.5423C11.3995 22.1526 12.6005 22.1526 13.4946 21.5423L17.7696 18.6243C19.7968 17.2406 21 15.0064 21 12.6257V6.17181C21 5.68032 20.6935 5.23612 20.2208 5.04252ZM16.6261 9.68879C16.9807 9.26532 16.9248 8.63462 16.5013 8.2801C16.0778 7.92558 15.4471 7.98148 15.0926 8.40496L10.6353 13.7292L8.83595 12.0098C8.43667 11.6282 7.80366 11.6426 7.4221 12.0419C7.04054 12.4412 7.05491 13.0742 7.4542 13.4557L9.63958 15.5441C10.2665 16.1432 11.2694 16.0874 11.8261 15.4225L16.6261 9.68879Z"
        fill="white" />
</svg>
