<svg width="24" height="24" viewBox="0 0 24 24" fill="none" xmlns="http://www.w3.org/2000/svg">
    <path
        d="M16.2033 4.5755L16.2934 4.6275C17.0715 5.07671 17.7204 5.4513 18.1955 5.81795C18.697 6.20494 19.095 6.64914 19.2617 7.27132C19.4284 7.8935 19.3058 8.4772 19.065 9.06309C18.8979 9.46976 18.6521 9.92674 18.356 10.448L17.7207 10.0704L17.7125 10.0656L10.7872 6.06728L10.1395 5.68557C10.4396 5.17448 10.71 4.73795 10.9762 4.393C11.3632 3.89152 11.8074 3.49349 12.4296 3.32678C13.0518 3.16006 13.6355 3.28267 14.2213 3.52347C14.7764 3.7516 15.4253 4.12624 16.2033 4.5755Z"
        fill="white" />
    <path
        d="M9.3881 6.98384L5.91013 13.0077C5.61235 13.5225 5.37689 13.9296 5.28965 14.3926C5.20242 14.8556 5.2736 15.3204 5.36363 15.9083L5.38789 16.0672C5.55408 17.1586 5.69106 18.0581 5.89766 18.7403C6.11373 19.4537 6.44588 20.0712 7.09915 20.4484C7.75243 20.8256 8.45329 20.8045 9.17918 20.6349C9.87324 20.4727 10.7208 20.1416 11.749 19.7398L11.8988 19.6814C12.4529 19.4654 12.891 19.2946 13.2484 18.9876C13.6057 18.6805 13.8405 18.2731 14.1375 17.7578L17.6072 11.7479L16.9584 11.3623L10.0284 7.36127L9.3881 6.98384Z"
        fill="white" />
</svg>
