<?xml version="1.0" encoding="UTF-8"?>
<svg width="1200pt" height="1200pt" version="1.1" viewBox="0 0 1200 1200"
    xmlns="http://www.w3.org/2000/svg">
    <path
        d="m942.6 212.4c87 0 157.8 70.801 157.8 157.2v460.2c0 87-70.199 157.2-156.6 157.2h-0.60156l-685.8 0.003906c-87 0-157.2-70.801-157.2-157.2v-459.6c0-87 70.801-157.2 157.2-157.2zm-238.2 433.8-10.199 10.199c-51 51-127.8 52.801-181.8 6.6016l-13.203-13.203-271.8 257.4c7.1992 3 15 4.8008 22.801 5.3984l7.1992 0.60156h685.2c10.801 0 21-1.8008 30.602-5.3984zm-522-310.8c-4.8008 10.199-7.8008 22.199-7.8008 34.801v460.2c0 7.1992 1.1992 13.801 2.3984 20.398l268.2-253.8zm835.2 0-259.8 258 265.2 257.4c1.1992-4.1992 1.8008-9 2.3984-13.199l0.60156-7.1992v-460.2c-1.1992-12.598-3.6016-24.598-8.3984-34.801zm-75-48h-685.2c-5.3984 0-10.199 0.60156-15.602 1.1992l316.2 313.8c22.801 22.801 54 24 78 4.8008l4.8008-4.8008 316.2-313.8c-4.7969-0.59766-9.5977-1.1992-14.395-1.1992z" />
</svg>
