<svg xmlns="http://www.w3.org/2000/svg" xmlns:xlink="http://www.w3.org/1999/xlink" version="1.1"
    x="0px" y="0px" viewBox="0 0 100 100" enable-background="new 0 0 100 100" xml:space="preserve"><g><path d="M83.333,14.905H16.667c-5.465,0-9.91,4.445-9.91,9.91v36.637c0,5.464,4.445,9.909,9.91,9.909h20.047l13.619,14.946   l13.619-14.946h19.381c5.465,0,9.91-4.445,9.91-9.909V24.814C93.243,19.35,88.798,14.905,83.333,14.905z M88.243,61.452   c0,2.707-2.203,4.909-4.91,4.909h-21.59l-11.41,12.522l-11.41-12.522H16.667c-2.707,0-4.91-2.202-4.91-4.909V24.814   c0-2.707,2.203-4.91,4.91-4.91h66.666c2.707,0,4.91,2.203,4.91,4.91V61.452z"></path><path
    d="M57.281,24.658c-2.648,0-5.188,0.85-7.282,2.417c-2.092-1.568-4.632-2.418-7.28-2.418c-3.248,0-6.306,1.266-8.614,3.567   c-4.663,4.669-4.793,12.097-0.301,16.905c0.099,0.106,0.197,0.212,0.302,0.316l15.893,15.893L65.895,45.44   c0.104-0.104,0.201-0.208,0.292-0.307c2.109-2.253,3.271-5.2,3.271-8.298c0-3.262-1.268-6.322-3.567-8.615   C63.589,25.923,60.531,24.658,57.281,24.658z"></path></g></svg>