<svg xmlns="http://www.w3.org/2000/svg" xmlns:xlink="http://www.w3.org/1999/xlink" version="1.1"
    x="0px" y="0px" viewBox="0 0 100 100" enable-background="new 0 0 100 100" xml:space="preserve"><g><path d="M83.333,14.905H16.667c-5.464,0-9.909,4.445-9.909,9.91v36.637c0,5.464,4.445,9.909,9.909,9.909h20.048l13.619,14.946   l13.619-14.946h19.381c5.464,0,9.909-4.445,9.909-9.909V24.814C93.243,19.35,88.797,14.905,83.333,14.905z M88.243,61.452   c0,2.707-2.202,4.909-4.909,4.909H61.744L50.333,78.883L38.922,66.361H16.667c-2.707,0-4.909-2.202-4.909-4.909V24.814   c0-2.707,2.202-4.91,4.909-4.91h66.667c2.707,0,4.909,2.203,4.909,4.91V61.452z"></path><path
    d="M56.945,45.785h-13.89c-6.46,0-11.716,5.255-11.716,11.715V60h37.321v-2.5C68.661,51.04,63.405,45.785,56.945,45.785z    M36.822,55c0.994-2.469,3.414-4.215,6.233-4.215h13.89c2.82,0,5.24,1.747,6.233,4.215H36.822z"></path><path
    d="M50,44.497c5.512,0,9.997-4.485,9.997-9.997c0-5.513-4.485-9.998-9.997-9.998s-9.997,4.485-9.997,9.998   C40.003,40.012,44.488,44.497,50,44.497z M50,29.502c2.755,0,4.997,2.242,4.997,4.998c0,2.755-2.242,4.997-4.997,4.997   s-4.997-2.242-4.997-4.997C45.003,31.744,47.245,29.502,50,29.502z"></path></g></svg>