<svg xmlns="http://www.w3.org/2000/svg" xmlns:xlink="http://www.w3.org/1999/xlink" version="1.1"
    x="0px" y="0px" viewBox="0 0 100 100" enable-background="new 0 0 100 100" xml:space="preserve"><g><path d="M83.333,14.905H16.667c-5.465,0-9.91,4.445-9.91,9.91v36.637c0,5.464,4.445,9.909,9.91,9.909h20.047l13.619,14.946   l13.619-14.946h19.381c5.465,0,9.91-4.445,9.91-9.909V24.814C93.243,19.35,88.798,14.905,83.333,14.905z M88.243,61.452   c0,2.707-2.203,4.909-4.91,4.909h-21.59l-11.41,12.522l-11.41-12.522H16.667c-2.707,0-4.91-2.202-4.91-4.909V24.814   c0-2.707,2.203-4.91,4.91-4.91h66.666c2.707,0,4.91,2.203,4.91,4.91V61.452z"></path><path
    d="M56.945,46.785H43.055c-5.908,0-10.715,4.807-10.715,10.715V59h35.32v-1.5C67.66,51.591,62.854,46.785,56.945,46.785z"></path><path
    d="M50,43.497c4.961,0,8.997-4.036,8.997-8.997c0-4.961-4.036-8.998-8.997-8.998s-8.997,4.036-8.997,8.998   C41.003,39.46,45.039,43.497,50,43.497z"></path></g></svg>