<svg xmlns="http://www.w3.org/2000/svg" xmlns:xlink="http://www.w3.org/1999/xlink" version="1.1"
    x="0px" y="0px" viewBox="0 0 100 100" enable-background="new 0 0 100 100" xml:space="preserve"><g><path d="M80.064,26.903H64.771L51.848,12.721c-0.947-1.04-2.748-1.04-3.695,0L35.229,26.903H19.936   c-5.84,0-10.591,4.751-10.591,10.592v40.009c0,5.84,4.751,10.591,10.591,10.591h60.128c5.84,0,10.591-4.751,10.591-10.591V37.495   C90.655,31.654,85.904,26.903,80.064,26.903z M85.655,77.504c0,3.083-2.508,5.591-5.591,5.591H19.936   c-3.083,0-5.591-2.508-5.591-5.591V37.495c0-3.083,2.508-5.592,5.591-5.592h16.397c0.703,0,1.374-0.296,1.848-0.816L50,18.117   l11.819,12.97c0.474,0.52,1.145,0.816,1.848,0.816h16.397c3.083,0,5.591,2.508,5.591,5.592V77.504z"></path><path
    d="M58.143,61.361H41.857c-7.336,0-13.305,5.969-13.305,13.305h5c0-4.58,3.726-8.305,8.305-8.305h16.286   c4.58,0,8.305,3.726,8.305,8.305h5C71.448,67.33,65.479,61.361,58.143,61.361z"></path><path
    d="M50,58.399c6.226,0,11.291-5.065,11.291-11.291S56.226,35.818,50,35.818s-11.291,5.065-11.291,11.291   S43.774,58.399,50,58.399z M50,40.818c3.469,0,6.291,2.822,6.291,6.291S53.469,53.399,50,53.399s-6.291-2.822-6.291-6.291   S46.531,40.818,50,40.818z"></path></g></svg>