<svg width="30" height="30" viewBox="0 0 30 30" fill="none" xmlns="http://www.w3.org/2000/svg">
    <path
        d="M15.4 9.02133C17.3529 9.02133 18.6703 9.86489 19.4214 10.5698L22.3565 7.704C20.5538 6.02844 18.208 5 15.4 5C11.3325 5 7.8196 7.33422 6.10938 10.7316L9.47204 13.3431C10.3156 10.8356 12.6498 9.02133 15.4 9.02133Z"
        fill="#EA4335" />
    <path
        d="M25.3824 15.634C25.3824 14.7789 25.3131 14.1549 25.1629 13.5078H15.3984V17.3674H21.13C21.0144 18.3265 20.3904 19.7709 19.0038 20.7416L22.2855 23.2838C24.25 21.4696 25.3824 18.8003 25.3824 15.634Z"
        fill="#4285F4" />
    <path
        d="M9.48356 17.4597C9.264 16.8126 9.13689 16.1193 9.13689 15.4028C9.13689 14.6864 9.264 13.993 9.472 13.3459L6.10933 10.7344C5.40444 12.1442 5 13.7273 5 15.4028C5 17.0784 5.40444 18.6615 6.10933 20.0713L9.48356 17.4597Z"
        fill="#FBBC05" />
    <path
        d="M15.3963 25.7962C18.2043 25.7962 20.5616 24.8718 22.2834 23.2771L19.0016 20.7349C18.1234 21.3473 16.9447 21.7749 15.3963 21.7749C12.6461 21.7749 10.3119 19.9607 9.47985 17.4531L6.11719 20.0647C7.82741 23.462 11.3287 25.7962 15.3963 25.7962Z"
        fill="#34A853" />
</svg>
