<svg xmlns="http://www.w3.org/2000/svg" viewBox="0 0 32 32" x="0px" y="0px">
    <title>view, grid, layout</title>
    <g data-name="Layer 5">
        <path
            d="M8,15h4a3,3,0,0,0,3-3V8a3,3,0,0,0-3-3H8A3,3,0,0,0,5,8v4A3,3,0,0,0,8,15ZM7,8A1,1,0,0,1,8,7h4a1,1,0,0,1,1,1v4a1,1,0,0,1-1,1H8a1,1,0,0,1-1-1Z"></path>
        <path
            d="M20,15h4a3,3,0,0,0,3-3V8a3,3,0,0,0-3-3H20a3,3,0,0,0-3,3v4A3,3,0,0,0,20,15ZM19,8a1,1,0,0,1,1-1h4a1,1,0,0,1,1,1v4a1,1,0,0,1-1,1H20a1,1,0,0,1-1-1Z"></path>
        <path
            d="M8,27h4a3,3,0,0,0,3-3V20a3,3,0,0,0-3-3H8a3,3,0,0,0-3,3v4A3,3,0,0,0,8,27ZM7,20a1,1,0,0,1,1-1h4a1,1,0,0,1,1,1v4a1,1,0,0,1-1,1H8a1,1,0,0,1-1-1Z"></path>
        <path
            d="M20,27h4a3,3,0,0,0,3-3V20a3,3,0,0,0-3-3H20a3,3,0,0,0-3,3v4A3,3,0,0,0,20,27Zm-1-7a1,1,0,0,1,1-1h4a1,1,0,0,1,1,1v4a1,1,0,0,1-1,1H20a1,1,0,0,1-1-1Z"></path>
    </g>
</svg>