<svg xmlns="http://www.w3.org/2000/svg" xmlns:xlink="http://www.w3.org/1999/xlink" version="1.1"
    x="0px" y="0px" viewBox="0 0 100 100" style="enable-background:new 0 0 100 100;"
    xml:space="preserve"><path d="M4.562,4.562v90.875h90.876V4.562H4.562z M86.35,31.825H68.175V13.649H86.35V31.825z M40.913,40.912h18.175v18.176H40.913  V40.912z M31.825,59.088H13.65V40.912h18.175V59.088z M59.087,31.825H40.913V13.649h18.175V31.825z M59.087,68.175v18.176H40.913  V68.175H59.087z M68.175,40.912H86.35v18.176H68.175V40.912z M31.825,13.649v18.176H13.65V13.649H31.825z M13.65,68.175h18.175  v18.176H13.65V68.175z M68.175,86.351V68.175H86.35v18.176H68.175z"></path></svg>