<svg xmlns="http://www.w3.org/2000/svg" xmlns:xlink="http://www.w3.org/1999/xlink" version="1.1"
    x="0px" y="0px" viewBox="0 0 100 100" enable-background="new 0 0 100 100" xml:space="preserve"><g><path fill="#000000" d="M79.927,5.109H20.073c-8.271,0-14.964,6.693-14.964,14.964v59.855c0,8.271,6.693,14.964,14.964,14.964   h59.855c8.218,0,14.911-6.693,14.964-14.964V20.073C94.838,11.802,88.145,5.109,79.927,5.109z M32.316,86.729H20.073   c-3.754,0-6.802-3.047-6.802-6.802V67.684h19.045V86.729z M32.316,59.522H13.271V40.478h19.045V59.522z M32.316,32.316H13.271   V20.073c0-3.754,3.047-6.802,6.802-6.802h12.243V32.316z M59.522,86.729H40.478V67.684h19.045V86.729z M59.522,59.522H40.478   V40.478h19.045V59.522z M59.522,32.316H40.478V13.271h19.045V32.316z M86.729,79.927c-0.053,3.754-3.047,6.802-6.802,6.802H67.684   V67.684h19.045V79.927z M86.729,59.522H67.684V40.478h19.045V59.522z M86.729,32.316H67.684V13.271h12.243   c3.701,0,6.749,3.047,6.802,6.802V32.316z"></path></g></svg>