<svg xmlns="http://www.w3.org/2000/svg" viewBox="0 0 68 68" x="0px" y="0px">
    <path fill="#000000" fill-rule="evenodd"
        d="M536,302.003487 C536,298.688644 538.690015,296 542.003487,296 L597.996513,296 C601.311356,296 604,298.690015 604,302.003487 L604,357.996513 C604,361.311356 601.309985,364 597.996513,364 L542.003487,364 C538.688644,364 536,361.309985 536,357.996513 L536,302.003487 Z M540,321 L540,339 L557,339 L557,321 L540,321 Z M561,321 L561,339 L579,339 L579,321 L561,321 Z M561,300 L561,317 L579,317 L579,300 L561,300 Z M561,343 L561,360 L579,360 L579,343 L561,343 Z M583,321 L583,339 L600,339 L600,321 L583,321 Z M541.999369,300 C540.895073,300 540,300.895093 540,301.999369 L540,317 L557,317 L557,300 L541.999369,300 Z M598.000631,360 C599.104927,360 600,359.104907 600,358.000631 L600,343 L583,343 L583,360 L598.000631,360 Z M600,317 L600,301.999369 C600,300.895093 599.104927,300 598.000631,300 L583,300 L583,317 L600,317 Z M540,358.000631 C540,359.104907 540.895073,360 541.999369,360 L557,360 L557,343 L540,343 L540,358.000631 Z"
        transform="translate(-536 -296)"></path>
</svg>