<svg xmlns="http://www.w3.org/2000/svg" xmlns:xlink="http://www.w3.org/1999/xlink" version="1.1"
    x="0px" y="0px" viewBox="0 0 100 100" enable-background="new 0 0 100 100" xml:space="preserve"><g><path d="M33.969,21.649c-0.473,0.281-0.942,0.578-1.406,0.884l0.343-2.869c0.164-1.371-0.814-2.615-2.186-2.779   c-1.375-0.154-2.615,0.814-2.779,2.186L26.544,30.76l12.083-0.01c1.381-0.001,2.499-1.121,2.498-2.502   c-0.001-1.38-1.12-2.498-2.5-2.498c0,0-0.001,0-0.002,0l-1.735,0.001c11.828-6.815,26.757-4.865,36.449,4.825   c5.71,5.711,8.856,13.304,8.856,21.38s-3.146,15.669-8.856,21.38c-5.711,5.71-13.304,8.856-21.38,8.856s-15.669-3.146-21.379-8.856   c-4.548-4.549-7.481-10.299-8.483-16.631c-0.215-1.364-1.496-2.293-2.86-2.079c-1.364,0.216-2.294,1.496-2.079,2.86   c1.167,7.381,4.585,14.084,9.886,19.385c6.655,6.655,15.503,10.321,24.915,10.321c9.412,0,18.26-3.666,24.915-10.321   c6.655-6.655,10.321-15.503,10.321-24.915c0-9.412-3.666-18.26-10.321-24.915C65.464,15.634,47.822,13.416,33.969,21.649z"></path><path
    d="M38.627,62c0.417,0,0.84-0.104,1.229-0.325l14.601-8.261V34.5c0-1.381-1.119-2.5-2.5-2.5s-2.5,1.119-2.5,2.5v15.999   l-12.063,6.826c-1.202,0.68-1.625,2.205-0.945,3.407C36.909,61.544,37.755,62,38.627,62z"></path></g></svg>