<svg xmlns="http://www.w3.org/2000/svg" xmlns:xlink="http://www.w3.org/1999/xlink" version="1.1"
    x="0px" y="0px" viewBox="0 0 100 100" enable-background="new 0 0 100 100" xml:space="preserve"><g><path d="M51.039,12.358c-0.58-0.558-1.498-0.558-2.078,0L12.294,47.607c-0.295,0.283-0.461,0.673-0.461,1.082V82.19   c0,3.236,2.746,5.87,6.122,5.87h23.841c0.828,0,1.5-0.671,1.5-1.5V68.256C43.296,64.807,46.304,62,50,62s6.704,2.807,6.704,6.256   l0.004,18.305c0.001,0.828,0.672,1.499,1.5,1.499h23.837c3.376,0,6.122-2.633,6.122-5.87V48.689c0-0.408-0.166-0.798-0.461-1.082   L51.039,12.358z"></path></g></svg>