<svg xmlns="http://www.w3.org/2000/svg" xmlns:xlink="http://www.w3.org/1999/xlink" version="1.1"
    x="0px" y="0px" viewBox="0 0 100 100" enable-background="new 0 0 100 100" xml:space="preserve"><g><path d="M51.732,11.638c-0.967-0.931-2.498-0.931-3.465,0L11.601,46.887c-0.49,0.471-0.768,1.122-0.768,1.802V82.19   c0,3.788,3.195,6.87,7.122,6.87h23.841c1.381,0,2.5-1.119,2.5-2.5V68.256C44.296,65.358,46.854,63,50,63s5.704,2.358,5.704,5.256   l0.004,18.306c0.001,1.38,1.12,2.498,2.5,2.498h23.837c3.927,0,7.122-3.082,7.122-6.87V48.689c0-0.68-0.277-1.331-0.768-1.802   L51.732,11.638z M84.167,82.19c0,1.031-0.952,1.87-2.122,1.87H60.706l-0.002-15.804C60.704,62.601,55.902,58,50,58   s-10.704,4.601-10.704,10.256V84.06H17.955c-1.17,0-2.122-0.839-2.122-1.87V49.753L50,16.908l34.167,32.846V82.19z"></path></g></svg>