<svg width="30" height="30" viewBox="0 0 30 30" fill="none" xmlns="http://www.w3.org/2000/svg">
    <path
        d="M15.0908 6.00001C12.3451 6.00677 9.715 6.82562 7.77669 8.27714C5.83839 9.72867 4.75 11.6945 4.75 13.7439C4.75003 15.0309 5.17977 16.2975 6.00039 17.4294C6.82101 18.5612 8.00662 19.5226 9.45003 20.2265C8.97647 21.6172 8.28521 23.7921 8.53589 23.9841C8.80241 24.1881 11.6628 22.385 13.2444 21.3596C13.8647 21.4449 14.4942 21.4879 15.125 21.4879C16.4875 21.4879 17.8366 21.2876 19.0954 20.8985C20.3541 20.5093 21.4979 19.9389 22.4613 19.2197C23.4247 18.5006 24.1889 17.6469 24.7103 16.7074C25.2317 15.7678 25.5 14.7608 25.5 13.7439C25.5 11.6901 24.4069 9.72041 22.4612 8.26815C20.5155 6.81589 17.8766 6.00002 15.125 6.00001C15.1136 6 15.1022 6 15.0908 6.00001Z"
        fill="#1A1A1A" />
</svg>
