<?xml version="1.0" encoding="UTF-8"?>
<svg width="1200pt" height="1200pt" version="1.1" viewBox="0 0 1200 1200"
    xmlns="http://www.w3.org/2000/svg">
    <path
        d="m737.5 232c-51.629-0.027344-101.5 18.742-140.3 52.805-38.801 34.059-63.871 81.078-70.535 132.27-6.6602 51.195 5.543 103.07 34.332 145.92l-294.25 294.25 70.75 70.75 50-50 72.25 72 162-162-71.75-72.25 85.25-85.25c37.996 20.992 81.512 29.844 124.69 25.363 43.18-4.4766 83.949-22.074 116.83-50.422 32.879-28.344 56.285-66.078 67.074-108.13 10.789-42.047 8.4414-86.391-6.7266-127.07-15.168-40.672-42.43-75.727-78.117-100.44-35.688-24.715-78.09-37.91-121.5-37.805zm0 350c-36.469 0-71.441-14.488-97.227-40.273-25.785-25.785-40.273-60.758-40.273-97.227s14.488-71.441 40.273-97.227c25.785-25.785 60.758-40.273 97.227-40.273s71.441 14.488 97.227 40.273c25.785 25.785 40.273 60.758 40.273 97.227s-14.488 71.441-40.273 97.227c-25.785 25.785-60.758 40.273-97.227 40.273z" />
</svg>
