<svg xmlns="http://www.w3.org/2000/svg" xmlns:xlink="http://www.w3.org/1999/xlink" version="1.1"
    x="0px" y="0px" viewBox="0 0 100 100" enable-background="new 0 0 100 100" xml:space="preserve"><g><g><g><path d="M84.829,75.665L84.829,75.665c3.995,0.005,7.269-3.259,7.273-7.254l0.045-34.292c0.005-3.995-3.26-7.269-7.255-7.273l0,0     c-3.995-0.005-7.269,3.259-7.273,7.254l-0.045,34.292C77.569,72.387,80.834,75.66,84.829,75.665z"></path></g></g><g><g><path d="M62.736,75.637L62.736,75.637c3.995,0.005,7.269-3.26,7.273-7.255l0.029-22.606c0.006-3.995-3.259-7.268-7.254-7.273l0,0     c-3.996-0.005-7.269,3.259-7.274,7.255l-0.029,22.606C55.477,72.358,58.741,75.631,62.736,75.637z"></path></g></g><g><g><path d="M20.476,75.582L20.476,75.582c3.996,0.005,7.269-3.259,7.274-7.255l0,0c0.005-3.995-3.26-7.269-7.255-7.273l0,0     c-3.995-0.005-7.269,3.259-7.274,7.254l0,0C13.216,72.303,16.48,75.576,20.476,75.582z"></path></g></g><g><g><path d="M41.104,75.608L41.104,75.608c3.995,0.005,7.269-3.259,7.273-7.255l0.017-12.619c0.005-3.995-3.26-7.269-7.255-7.273l0,0     c-3.995-0.005-7.269,3.259-7.273,7.254l-0.017,12.619C33.843,72.33,37.107,75.603,41.104,75.608z"></path></g></g></g></svg>