<svg xmlns="http://www.w3.org/2000/svg" xmlns:xlink="http://www.w3.org/1999/xlink" version="1.1"
    x="0px" y="0px" viewBox="0 0 100 100" enable-background="new 0 0 100 100" xml:space="preserve"><g><g><path d="M17.532,74.949L17.532,74.949c-3.995,0-7.264-3.269-7.264-7.264V33.394c0-3.995,3.269-7.264,7.264-7.264l0,0    c3.995,0,7.265,3.269,7.265,7.264v34.292C24.797,71.681,21.527,74.949,17.532,74.949z"></path></g></g>
    <g><g><path d="M39.625,74.949L39.625,74.949c-3.995,0-7.265-3.269-7.265-7.264V45.079c0-3.996,3.27-7.264,7.265-7.264l0,0    c3.995,0,7.264,3.269,7.264,7.264v22.606C46.889,71.681,43.62,74.949,39.625,74.949z"></path></g></g>
    <g><g><path d="M81.886,74.949L81.886,74.949c-3.996,0-7.265-3.269-7.265-7.264l0,0c0-3.995,3.269-7.264,7.265-7.264l0,0    c3.995,0,7.264,3.269,7.264,7.264l0,0C89.149,71.681,85.881,74.949,81.886,74.949z"></path></g></g>
    <g><g><path d="M61.258,74.949L61.258,74.949c-3.995,0-7.264-3.269-7.264-7.264V55.066c0-3.995,3.269-7.264,7.264-7.264l0,0    c3.996,0,7.265,3.269,7.265,7.264v12.619C68.522,71.681,65.254,74.949,61.258,74.949z"></path></g></g></svg>