<?xml version="1.0" encoding="UTF-8"?>
<svg width="1200pt" height="1200pt" version="1.1" viewBox="0 0 1200 1200"
    xmlns="http://www.w3.org/2000/svg">
    <path
        d="m600 129.6c-240 0-435.6 195.6-435.6 435.6 0 194.4 129.6 366 315.6 418.8l98.398 124.8c4.8008 6 10.801 8.3984 18 9.6016 7.1992 0 13.199-3.6016 18-8.3984l108-126c184.8-54 313.2-225.6 313.2-418.8 0.003906-240.01-195.6-435.61-435.6-435.61zm103.2 811.2c-4.8008 1.1992-8.3984 3.6016-12 7.1992l-93.602 109.2-85.199-108c-3.6016-3.6016-7.1992-7.1992-12-8.3984-169.2-45.602-286.8-199.2-286.8-374.4 0-213.6 174-387.6 387.6-387.6 213.6 0 387.6 174 387.6 387.6-1.1992 174-117.6 327.6-285.6 374.4z" />
</svg>
