<svg width="25" height="24" viewBox="0 0 25 24" fill="none" xmlns="http://www.w3.org/2000/svg">
    <path fill-rule="evenodd" clip-rule="evenodd"
        d="M13.2929 19.5911C15.1256 18.567 19.5 15.6371 19.5 11C19.5 7.13401 16.366 4 12.5 4C8.63401 4 5.5 7.13401 5.5 11C5.5 15.6371 9.87437 18.567 11.7071 19.5911C12.2045 19.869 12.7955 19.869 13.2929 19.5911ZM12.5 14C14.1569 14 15.5 12.6569 15.5 11C15.5 9.34315 14.1569 8 12.5 8C10.8431 8 9.5 9.34315 9.5 11C9.5 12.6569 10.8431 14 12.5 14Z"
        fill="#FF027B" />
</svg>
