<svg xmlns="http://www.w3.org/2000/svg" xmlns:xlink="http://www.w3.org/1999/xlink" version="1.1"
    x="0px" y="0px" viewBox="0 0 100 100" enable-background="new 0 0 100 100" xml:space="preserve"><g><path d="M84,27.5H17c-1.381,0-2.5,1.119-2.5,2.5s1.119,2.5,2.5,2.5h67c1.381,0,2.5-1.119,2.5-2.5S85.381,27.5,84,27.5z"></path><path
    d="M84,49.75H17c-1.381,0-2.5,1.119-2.5,2.5s1.119,2.5,2.5,2.5h67c1.381,0,2.5-1.119,2.5-2.5S85.381,49.75,84,49.75z"></path><path
    d="M84,72H17c-1.381,0-2.5,1.119-2.5,2.5S15.619,77,17,77h67c1.381,0,2.5-1.119,2.5-2.5S85.381,72,84,72z"></path></g></svg>