<svg width="24" height="24" viewBox="0 0 24 24" fill="none" xmlns="http://www.w3.org/2000/svg">
    <path fill-rule="evenodd" clip-rule="evenodd"
        d="M6.02646 5.30452C6.07033 5.26511 6.10489 5.21644 6.12764 5.16204C6.15938 5.08621 6.16633 5.00257 6.14825 4.92223L6.00907 4.36546C5.98355 4.26268 5.97602 4.15641 5.98657 4.05092C6.00541 3.86677 6.07809 3.69225 6.19554 3.54917L6.56072 3.11266C6.6129 3.04866 6.64384 2.96999 6.64922 2.88759C6.65461 2.80519 6.63418 2.72317 6.59077 2.65292C6.54737 2.58267 6.48315 2.5277 6.40704 2.49566C6.33094 2.46361 6.24674 2.45608 6.16616 2.47412L5.60841 2.6145C5.47048 2.64616 5.32716 2.64601 5.1893 2.61406C5.05144 2.58211 4.92266 2.5192 4.81273 2.43009L4.36655 2.05685C4.30166 2.0044 4.2219 1.97372 4.13859 1.96914C4.0567 1.96556 3.97566 1.98695 3.90621 2.03049C3.83676 2.07403 3.78219 2.13765 3.74974 2.21292C3.71807 2.28865 3.7107 2.37235 3.72866 2.45244L3.86844 3.0097C3.90249 3.15056 3.90327 3.29742 3.8707 3.43863C3.83814 3.57984 3.77313 3.71153 3.68082 3.82325L3.31585 4.25963C3.27468 4.30698 3.24535 4.36344 3.2303 4.42436C3.21525 4.48527 3.2149 4.54889 3.22928 4.60997C3.24367 4.67105 3.27237 4.72783 3.31302 4.77563C3.35367 4.82342 3.4051 4.86087 3.46308 4.88487C3.53885 4.91683 3.62274 4.92423 3.70294 4.90603L4.26041 4.76612C4.40124 4.732 4.54808 4.73114 4.68931 4.76358C4.83054 4.79603 4.96228 4.8609 5.07411 4.95306L5.53705 5.33741C5.58581 5.37059 5.64133 5.39251 5.6996 5.40158C5.75787 5.41065 5.81743 5.40664 5.87396 5.38986C5.93049 5.37307 5.98258 5.34392 6.02646 5.30452ZM4.78407 7.82057C4.83574 7.78838 4.87611 7.74091 4.89956 7.68474C4.92305 7.62861 4.92902 7.56651 4.91566 7.50716L4.8432 7.21731C4.82848 7.15782 4.8279 7.09572 4.84151 7.03598C4.85512 6.97623 4.88253 6.9205 4.92156 6.87326L5.11004 6.64785C5.14929 6.60041 5.17261 6.54181 5.17668 6.48037C5.18075 6.41893 5.16537 6.35777 5.13271 6.30557C5.10012 6.25397 5.0524 6.2137 4.99606 6.19025C4.93971 6.1668 4.8775 6.16132 4.81793 6.17456L4.52759 6.24761C4.46884 6.26074 4.40787 6.2602 4.34937 6.24605C4.29086 6.2319 4.23639 6.2045 4.19014 6.16598L3.96406 5.97734C3.91685 5.93818 3.85855 5.91482 3.79736 5.91055C3.73618 5.90627 3.67519 5.9213 3.623 5.95352C3.5708 5.98573 3.53003 6.0335 3.50642 6.09011C3.48281 6.14672 3.47755 6.20931 3.49139 6.26906L3.56364 6.55905C3.57804 6.61843 3.57839 6.68035 3.56468 6.73989C3.55096 6.79943 3.52355 6.85496 3.48463 6.90205L3.29588 7.12705C3.25513 7.1745 3.23063 7.23374 3.22595 7.29611C3.22128 7.35849 3.23668 7.42072 3.2699 7.47371C3.30245 7.52522 3.35009 7.56544 3.40632 7.58889C3.46255 7.61234 3.52465 7.61789 3.58414 7.60478L3.87449 7.53172C3.93385 7.51737 3.99573 7.51705 4.05524 7.53079C4.11474 7.54453 4.17023 7.57194 4.21729 7.61086L4.44257 7.79914C4.49086 7.83865 4.55042 7.86186 4.61271 7.86544C4.67309 7.86852 4.73295 7.85284 4.78407 7.82057ZM15.6071 4.92546C16.2373 5.95272 16.2038 6.68516 16.2038 6.68516C17.4994 7.87133 18.3196 9.61586 18.3195 11.5578V20.2462C18.3195 20.6618 17.9825 20.9988 17.5669 20.9988C17.1512 20.9988 16.8142 20.6618 16.8142 20.2462V11.5578C16.8142 10.6772 16.5975 9.84968 16.2182 9.13206V13.3443C16.2182 15.3577 14.3973 16.9957 12.159 16.9957C9.92076 16.9957 8.09981 15.3577 8.09981 13.3443V9.13206C7.72058 9.84968 7.50382 10.6772 7.50382 11.5578V20.2462C7.50382 20.6618 7.16683 20.9988 6.75117 20.9988C6.33551 20.9988 5.99853 20.6618 5.99853 20.2462V11.5578C5.99853 9.61591 6.81866 7.87133 8.11436 6.68516C8.11436 6.68516 8.08082 5.95272 8.71109 4.92546C9.5544 3.55093 10.3596 2.76356 12.1591 2.76356C13.9585 2.76356 14.7638 3.55093 15.6071 4.92546ZM13.9439 13.5864C14.3596 13.5864 14.4612 13.3106 14.4612 12.895V7.05361C14.4612 6.63795 14.3596 6.34424 13.9439 6.34424C13.5283 6.34424 13.4266 6.68516 13.4266 7.05361V12.895C13.4266 13.0691 13.5283 13.5864 13.9439 13.5864Z"
        fill="white" />
</svg>
