<svg width="24" height="24" viewBox="0 0 24 24" fill="none" xmlns="http://www.w3.org/2000/svg">
    <g opacity="0.4">
        <path
            d="M16.2053 6.92161C16.2053 6.92161 16.2388 6.18916 15.6085 5.16191C14.7652 3.78738 13.96 3 12.1605 3C10.3611 3 9.55587 3.78738 8.71256 5.16191C8.08229 6.18916 8.11584 6.92161 8.11584 6.92161C6.82013 8.10778 6 9.85236 6 11.7943V20.4826C6 20.8983 6.33698 21.2353 6.75264 21.2353C7.16831 21.2353 7.50529 20.8983 7.50529 20.4826V11.7943C7.50529 10.9137 7.72205 10.0861 8.10128 9.36851V13.5808C8.10128 15.5941 9.92223 17.2321 12.1605 17.2321C14.3988 17.2321 16.2197 15.5941 16.2197 13.5808V9.36851C16.5989 10.0861 16.8157 10.9137 16.8157 11.7943V20.4826C16.8157 20.8983 17.1527 21.2353 17.5684 21.2353C17.984 21.2353 18.321 20.8983 18.321 20.4826V11.7943C18.321 9.85231 17.5009 8.10778 16.2053 6.92161ZM14.4627 13.1314C14.4627 13.5471 14.3611 13.8229 13.9454 13.8229C13.5297 13.8229 13.4281 13.3056 13.4281 13.1314C13.4281 11.2364 13.4281 7.29005 13.4281 7.29005C13.4281 6.92161 13.5297 6.58068 13.9454 6.58068C14.3611 6.58068 14.4627 6.87439 14.4627 7.29005V13.1314Z"
            fill="white" />
    </g>
</svg>
