<svg width="25" height="24" viewBox="0 0 25 24" fill="none" xmlns="http://www.w3.org/2000/svg">
    <path
        d="M6.75 6.75C6.75 4.12665 8.87665 2 11.5 2C14.1234 2 16.25 4.12665 16.25 6.75C16.25 9.37335 14.1234 11.5 11.5 11.5C8.87665 11.5 6.75 9.37335 6.75 6.75Z"
        fill="white" />
    <path
        d="M3.75 17.75C3.75 15.1266 5.87665 13 8.5 13H14.5C15.6687 13 16.7388 13.4221 17.5662 14.1221C17.0729 14.1356 16.5836 14.3306 16.2071 14.7071C15.4261 15.4882 15.4261 16.7545 16.2071 17.5355L16.9142 18.2426L16.2071 18.9497C15.4261 19.7308 15.4261 20.9971 16.2071 21.7782C16.3088 21.8798 16.4186 21.9682 16.5346 22.0434C15.9179 22.3362 15.2281 22.5 14.5 22.5H8.5C5.87665 22.5 3.75 20.3734 3.75 17.75Z"
        fill="white" />
    <path
        d="M22.3943 16.6517C22.6872 16.3588 22.6872 15.8839 22.3943 15.591C22.1014 15.2981 21.6265 15.2981 21.3336 15.591L19.7427 17.182L18.1517 15.591C17.8588 15.2981 17.3839 15.2981 17.091 15.591C16.7981 15.8839 16.7981 16.3588 17.091 16.6517L18.682 18.2426L17.091 19.8336C16.7981 20.1265 16.7981 20.6014 17.091 20.8943C17.3839 21.1872 17.8588 21.1872 18.1517 20.8943L19.7427 19.3033L21.3336 20.8943C21.6265 21.1872 22.1014 21.1872 22.3943 20.8943C22.6872 20.6014 22.6872 20.1265 22.3943 19.8336L20.8033 18.2426L22.3943 16.6517Z"
        fill="white" />
</svg>
