<svg fill="#1A1A1A" xmlns="http://www.w3.org/2000/svg" viewBox="0 0 512 512" width="64px"
    height="64px">
    <path
        d="M 212.05664 42.056641 C 166.64764 42.056641 123.95666 59.738656 91.847656 91.847656 C 59.738656 123.95566 42.056641 166.64764 42.056641 212.05664 C 42.056641 257.46464 59.739656 300.15567 91.847656 332.26367 C 123.95566 364.37167 166.64764 382.05664 212.05664 382.05664 C 254.11441 382.05664 293.83636 366.87623 324.98242 339.125 L 452.87305 467.01562 C 454.82605 468.96763 457.38336 469.94336 459.94336 469.94336 C 462.50336 469.94336 465.06262 468.96763 467.01562 467.01562 C 470.92062 463.10963 470.92062 456.77805 467.01562 452.87305 L 339.12305 324.98047 C 366.87482 293.83438 382.05664 254.11484 382.05664 212.05664 C 382.05664 166.64864 364.37362 123.95666 332.26562 91.847656 C 300.15763 59.738656 257.46464 42.056641 212.05664 42.056641 z M 212.05664 62.054688 C 252.12264 62.054687 289.79009 77.657281 318.12109 105.98828 C 346.45309 134.31928 362.05664 171.98769 362.05664 212.05469 C 362.05664 252.12069 346.45309 289.78814 318.12109 318.11914 C 289.79009 346.45114 252.12264 362.05469 212.05664 362.05469 C 171.98964 362.05469 134.32028 346.45114 105.98828 318.11914 C 77.657281 289.78814 62.054688 252.12069 62.054688 212.05469 C 62.054688 171.98869 77.657281 134.31928 105.98828 105.98828 C 134.32028 77.657281 171.98964 62.054688 212.05664 62.054688 z" />
</svg>