<svg xmlns="http://www.w3.org/2000/svg" version="1.1" viewBox="0 0 1024 1024" x="0px" y="0px">
    <title>search</title>
    <path
        d="M989 931.6l-239.5-239.3c60-73.2 92.9-164.8 92.9-259.4 0-225.9-183.8-409.6-409.6-409.6-55.2 0-108.8 10.8-159.3 32.2-48.8 20.7-92.6 50.2-130.2 87.8s-67.2 81.4-87.9 130.2c-21.4 50.5-32.3 104.1-32.3 159.3 0 225.9 183.8 409.6 409.6 409.6 94.7 0 186.2-32.9 259.4-92.9l239.3 239.3c7.7 7.7 17.9 11.9 28.7 11.9 10.9 0 21.1-4.2 28.7-11.9 16-15.7 16-41.4 0.2-57.2zM761.3 432.8c0 181.2-147.4 328.5-328.5 328.5-181.2 0-328.5-147.4-328.5-328.5s147.4-328.5 328.5-328.5c181.1 0 328.5 147.4 328.5 328.5z"></path>
</svg>