<svg xmlns="http://www.w3.org/2000/svg" xmlns:xlink="http://www.w3.org/1999/xlink" version="1.1"
    x="0px" y="0px" viewBox="0 0 100 100" enable-background="new 0 0 100 100" xml:space="preserve"><g><path d="M85.46,22.002c-0.005-0.137-0.023-0.272-0.051-0.407c-0.012-0.059-0.022-0.117-0.038-0.175   c-0.046-0.162-0.109-0.321-0.19-0.476c-0.01-0.02-0.014-0.042-0.025-0.062c-0.002-0.003-0.005-0.005-0.006-0.008   c-0.001-0.002-0.001-0.004-0.003-0.006c-0.097-0.172-0.216-0.323-0.345-0.462c-0.038-0.041-0.08-0.075-0.12-0.113   c-0.102-0.097-0.21-0.185-0.326-0.262c-0.052-0.035-0.103-0.068-0.158-0.098c-0.128-0.072-0.261-0.131-0.399-0.18   c-0.044-0.015-0.084-0.036-0.129-0.049c-0.183-0.054-0.372-0.084-0.563-0.095c-0.014-0.001-0.026-0.006-0.04-0.007l-65.945-2.537   c-1.057-0.046-2.032,0.593-2.422,1.582c-0.389,0.988-0.111,2.114,0.692,2.809L42.58,44.935l4.943,35.843   c0.146,1.062,0.954,1.913,2.008,2.114c0.156,0.03,0.313,0.044,0.47,0.044c0.889,0,1.727-0.476,2.176-1.27l32.973-58.335   c0.009-0.016,0.012-0.034,0.02-0.05c0.091-0.169,0.165-0.346,0.215-0.53c0.008-0.03,0.009-0.062,0.016-0.092   c0.036-0.156,0.057-0.314,0.062-0.475C85.465,22.122,85.462,22.063,85.46,22.002z M74.09,24.261L45.228,40.615L24.063,22.336   L74.09,24.261z M51.466,72.763l-3.83-27.765l28.722-16.276L51.466,72.763z"></path></g></svg>