<svg width="24" height="24" viewBox="0 0 24 24" fill="none" xmlns="http://www.w3.org/2000/svg">
    <path fill-rule="evenodd" clip-rule="evenodd"
        d="M11.999 1.48438C11.3416 1.48438 10.7696 1.90595 9.62569 2.74911L7.90478 4.01757C7.72458 4.1504 7.63447 4.21681 7.53774 4.27266C7.441 4.32851 7.33843 4.37334 7.1333 4.46299L5.17433 5.31911C3.87218 5.88819 3.2211 6.17272 2.89238 6.74208C2.56366 7.31144 2.64278 8.01756 2.80102 9.42979L3.03908 11.5544C3.06401 11.7768 3.07648 11.8881 3.07648 11.9998C3.07648 12.1115 3.06401 12.2227 3.03908 12.4452L2.80102 14.5698C2.64278 15.982 2.56366 16.6881 2.89238 17.2575C3.2211 17.8269 3.87218 18.1114 5.17433 18.6805L7.1333 19.5366C7.33843 19.6262 7.441 19.6711 7.53774 19.7269C7.63447 19.7828 7.72458 19.8492 7.90478 19.982L9.62569 21.2505C10.7696 22.0936 11.3416 22.5152 11.999 22.5152C12.6564 22.5152 13.2284 22.0936 14.3723 21.2505L14.3723 21.2505L16.0932 19.982C16.2734 19.8492 16.3635 19.7828 16.4603 19.7269C16.557 19.6711 16.6596 19.6262 16.8647 19.5366L18.8237 18.6805C20.1258 18.1114 20.7769 17.8269 21.1056 17.2575C21.4343 16.6881 21.3552 15.982 21.197 14.5698L20.9589 12.4452L20.9589 12.4452C20.934 12.2227 20.9215 12.1115 20.9215 11.9998C20.9215 11.8881 20.934 11.7769 20.9589 11.5544L20.9589 11.5544L21.197 9.42979C21.3552 8.01756 21.4343 7.31144 21.1056 6.74208C20.7769 6.17272 20.1258 5.88819 18.8237 5.31911L16.8647 4.46299L16.8647 4.46298C16.6596 4.37334 16.557 4.32851 16.4603 4.27266C16.3635 4.21681 16.2734 4.1504 16.0932 4.01757L14.3723 2.74911C13.2284 1.90595 12.6564 1.48438 11.999 1.48438ZM11.999 15.9998C14.2081 15.9998 15.999 14.2089 15.999 11.9998C15.999 9.79065 14.2081 7.99979 11.999 7.99979C9.78986 7.99979 7.99899 9.79065 7.99899 11.9998C7.99899 14.2089 9.78986 15.9998 11.999 15.9998Z"
        fill="#8C8B8C" />
</svg>
