<svg width="24" height="24" viewBox="0 0 24 24" fill="none" xmlns="http://www.w3.org/2000/svg">
    <g clip-path="url(#clip0_708_594)">
        <path
            d="M13.1416 3.85253L12.988 6.21668L12.9728 6.53024L12.9047 6.53776C9.54551 6.92878 7 9.77417 7 13.2587C7 13.6024 7.02574 13.943 7.07721 14.2791C7.28839 15.6665 7.44734 15.8011 8.41846 14.6536C8.65914 14.3745 8.92242 14.1155 9.20566 13.8791C10.2221 13.0444 11.4863 12.5641 12.804 12.512L12.9751 12.5083L13.0213 13.4324L13.1469 15.1958C13.2075 15.8003 13.8478 16.2132 14.4367 15.883C14.7031 15.7342 14.9628 15.5747 15.2239 15.4168C16.5765 14.5762 17.8428 13.6099 19.0766 12.606C19.8032 12.0045 20.4391 11.4345 20.981 10.9156C21.2308 10.6728 21.4806 10.4299 21.722 10.1787C22.0717 9.81478 22.1065 9.21246 21.7402 8.83122C20.897 7.95519 19.7056 6.85809 18.2228 5.69407C17.0208 4.76014 15.778 3.88787 14.4609 3.12163C13.8274 2.76295 13.1991 3.25473 13.1416 3.85253Z"
            fill="#8C8B8C" />
        <path
            d="M9.5 4H6C4.34315 4 3 5.34315 3 7V18C3 19.6569 4.34315 21 6 21H17C18.6569 21 20 19.6569 20 18V16"
            stroke="#8C8B8C" stroke-width="2" stroke-linecap="round" stroke-linejoin="round" />
    </g>
    <defs>
        <clipPath id="clip0_708_594">
            <rect width="24" height="24" fill="white" />
        </clipPath>
    </defs>
</svg>
