<svg width="25" height="24" viewBox="0 0 25 24" fill="none" xmlns="http://www.w3.org/2000/svg">
    <g clip-path="url(#clip0_544_2213)">
        <path
            d="M13.6416 3.85253L13.488 6.21668L13.4728 6.53024L13.4047 6.53776C10.0455 6.92878 7.5 9.77417 7.5 13.2587C7.5 13.6024 7.52574 13.943 7.57721 14.2791C7.78839 15.6665 7.94734 15.8011 8.91846 14.6536C9.15914 14.3745 9.42242 14.1155 9.70566 13.8791C10.7221 13.0444 11.9863 12.5641 13.304 12.512L13.4751 12.5083L13.5213 13.4324L13.6469 15.1958C13.7075 15.8003 14.3478 16.2132 14.9367 15.883C15.2031 15.7342 15.4628 15.5747 15.7239 15.4168C17.0765 14.5762 18.3428 13.6099 19.5766 12.606C20.3032 12.0045 20.9391 11.4345 21.481 10.9156C21.7308 10.6728 21.9806 10.4299 22.222 10.1787C22.5717 9.81478 22.6065 9.21246 22.2402 8.83122C21.397 7.95519 20.2056 6.85809 18.7228 5.69407C17.5208 4.76014 16.278 3.88787 14.9609 3.12163C14.3274 2.76295 13.6991 3.25473 13.6416 3.85253Z"
            fill="#8C8B8C" />
        <path
            d="M10 4H6.5C4.84315 4 3.5 5.34315 3.5 7V18C3.5 19.6569 4.84315 21 6.5 21H17.5C19.1569 21 20.5 19.6569 20.5 18V16"
            stroke="#8C8B8C" stroke-width="2" stroke-linecap="round" stroke-linejoin="round" />
    </g>
    <defs>
        <clipPath id="clip0_544_2213">
            <rect width="24" height="24" fill="white" transform="translate(0.5)" />
        </clipPath>
    </defs>
</svg>
