<?xml version="1.0" encoding="UTF-8"?>
<svg width="1200pt" height="1200pt" version="1.1" viewBox="0 0 1200 1200"
    xmlns="http://www.w3.org/2000/svg">
    <g>
        <path
            d="m769.92 492.19c0 93.844-76.078 169.92-169.92 169.92s-169.92-76.078-169.92-169.92 76.078-169.92 169.92-169.92 169.92 76.078 169.92 169.92" />
        <path
            d="m600 192.19c-225 0-407.81 182.34-407.81 407.81 0 225 182.34 407.81 407.81 407.81s407.81-182.34 407.81-407.81c0-225-182.81-407.81-407.81-407.81zm274.69 661.64v-12.422c0-79.219-64.453-143.91-143.91-143.91h-264.61c-79.219 0-143.91 64.453-143.91 143.91v10.078c-60.234-66.328-97.031-154.45-97.031-251.48 0-206.48 167.58-374.06 374.06-374.06s374.3 167.58 374.3 374.06c0.46875 98.203-36.797 187.03-98.906 253.83z" />
    </g>
</svg>
