<svg xmlns="http://www.w3.org/2000/svg" viewBox="0 0 148.05 148.05" x="0px" y="0px">
    <defs>
        <style>.cls-1{fill:#000000;}</style>
    </defs>
    <title>Fichier 3</title>
    <g data-name="Calque 2">
        <g data-name="Calque 2">
            <path class="cls-1"
                d="M74,0A74,74,0,0,0,27.26,131.41l.08.06,2.75,2.13,0,0a74,74,0,0,0,87.82,0c1-.71,1.93-1.45,2.86-2.22A74,74,0,0,0,74,0Zm39.45,128.18a66.9,66.9,0,0,1-78.9,0c.07-.53.15-1,.24-1.56a39.82,39.82,0,0,1,78.42,0c.09.52.17,1,.24,1.55ZM48,59.66A26.07,26.07,0,1,1,74,85.73,26.1,26.1,0,0,1,48,59.66Zm71.7,63.41A46.89,46.89,0,0,0,89,89.17a33.07,33.07,0,1,0-29.86,0,46.89,46.89,0,0,0-30.7,33.9,67,67,0,1,1,91.26,0Z"></path>
        </g>
    </g>
</svg>