<?xml version="1.0" encoding="UTF-8"?>
<svg width="1200pt" height="1200pt" version="1.1" viewBox="0 0 1200 1200"
    xmlns="http://www.w3.org/2000/svg">
    <path
        d="m600 258.05c188.86 0 341.96 153.09 341.96 341.95s-153.1 341.96-341.96 341.96-341.95-153.1-341.95-341.96 153.09-341.95 341.95-341.95zm213.02 573.04c-14.188-104.75-104.54-186.2-213.02-186.2-108.48 0-198.84 81.441-213.02 186.2-62.277-57.43-101.3-139.71-101.3-231.1 0-173.59 140.73-314.32 314.32-314.32s314.32 140.73 314.32 314.32c0 91.391-39.02 173.66-101.3 231.1zm-213.02-475c70.953 0 128.47 57.516 128.47 128.45s-57.516 128.45-128.47 128.45c-70.938 0-128.45-57.516-128.45-128.45s57.516-128.45 128.45-128.45z"
        fill-rule="evenodd" />
</svg>
