<svg xmlns="http://www.w3.org/2000/svg" xmlns:xlink="http://www.w3.org/1999/xlink" version="1.1"
    x="0px" y="0px" viewBox="0 0 100 100" enable-background="new 0 0 100 100" xml:space="preserve"><g><path d="M62.81,56.809H37.19c-10.751,0-19.498,8.747-19.498,19.498v2.5h64.615v-2.5C82.308,65.556,73.561,56.809,62.81,56.809z    M22.908,73.807C24.096,67,30.048,61.809,37.19,61.809h25.62c7.142,0,13.094,5.191,14.282,11.998H22.908z"></path><path
    d="M50,53.85c9.003,0,16.329-7.325,16.329-16.328S59.003,21.193,50,21.193s-16.329,7.325-16.329,16.329S40.997,53.85,50,53.85   z M50,26.193c6.247,0,11.329,5.082,11.329,11.329S56.247,48.85,50,48.85s-11.329-5.082-11.329-11.328S43.753,26.193,50,26.193z"></path></g></svg>