<svg xmlns="http://www.w3.org/2000/svg" xmlns:xlink="http://www.w3.org/1999/xlink" version="1.1"
    x="0px" y="0px" viewBox="0 0 100 100" enable-background="new 0 0 100 100" xml:space="preserve"><g><g><g><path d="M84.654,75.585c0,0-0.702-54.785-58.84-57.352c0,0-0.069,3.03-0.092,4.04c-0.025,1.098-0.101,4.393-0.101,4.393     s45.305-0.43,50.304,49.031L84.654,75.585z"></path></g></g><g><g><path d="M43.757,76.335l9.084-0.286c0,0,0.071-25.347-26.638-25.964l-0.396,8.755C25.808,58.84,43.528,58.5,43.757,76.335z"></path></g></g><g><g><path d="M68.929,76.012c0,0-0.069-40.643-43.063-41.974l0.11,8.579c0,0,30.397-0.841,33.993,33.133L68.929,76.012z"></path></g></g><g><g><path d="M84.654,75.585"></path></g></g><g><g><circle cx="29.868" cy="73.01" r="7.313"></circle></g></g></g></svg>