<svg xmlns="http://www.w3.org/2000/svg" xmlns:xlink="http://www.w3.org/1999/xlink" version="1.1"
    x="0px" y="0px" viewBox="0 0 100 100" enable-background="new 0 0 100 100" xml:space="preserve"><g><g><g><path d="M17.614,77.154c0,0-0.776-54.784,57.272-58.917c0,0,0.151,3.026,0.201,4.035c0.055,1.097,0.219,4.389,0.219,4.389     s-45.3,0.792-48.963,50.37L17.614,77.154z"></path></g></g><g><g><path d="M58.517,76.801l-9.089-0.041c0,0-0.754-25.336,25.929-26.673l0.631,8.741C75.988,58.829,58.265,58.966,58.517,76.801z"></path></g></g><g><g><path d="M33.345,77.158c0,0-1.027-40.63,41.916-43.12l0.122,8.579c0,0-30.409-0.021-33.087,34.038L33.345,77.158z"></path></g></g><g><g><path d="M17.614,77.154"></path></g></g><g><g><circle cx="72.31" cy="73.103" r="7.312"></circle></g></g></g></svg>