<svg xmlns="http://www.w3.org/2000/svg" xmlns:xlink="http://www.w3.org/1999/xlink" version="1.1"
    x="0px" y="0px" viewBox="0 0 100 100" enable-background="new 0 0 100 100" xml:space="preserve"><g><g><g><path d="M8.676,36.432c0,0,38.742-38.742,82.167,0c0,0-2.065,2.218-2.753,2.957c-0.749,0.804-2.994,3.216-2.994,3.216     s-32.143-31.93-70.246,0L8.676,36.432z"></path></g></g><g><g><path d="M37.439,65.515l-6.306-6.545c0,0,17.642-18.2,37.199,0l-5.827,6.545C62.505,65.515,50.052,52.902,37.439,65.515z"></path></g></g><g><g><path d="M19.639,47.714c0,0,28.417-29.057,60.135,0l-6.066,6.066c0,0-21.181-21.819-47.47,0L19.639,47.714z"></path></g></g><g><g><path d="M8.676,36.432"></path></g></g><g><g><circle cx="49.706" cy="72.827" r="7.313"></circle></g></g></g></svg>