<svg fill="#000000" xmlns="http://www.w3.org/2000/svg" viewBox="0 0 512 512" width="64px"
    height="64px">
    <path
        d="M 138 60 C 94.991 60 60 94.991 60 138 L 60 382 C 60 425.01 94.991 460 138 460 L 372 460 C 415.01 460 450 425.01 450 382 L 450 138 C 450 94.991 415.01 60 372 60 L 138 60 z M 138 80 L 372 80 C 403.981 80 430 106.019 430 138 L 430 382 C 430 413.981 403.981 440 372 440 L 138 440 C 106.019 440 80 413.981 80 382 L 80 138 C 80 106.019 106.019 80 138 80 z M 255 140 C 249.477 140 245 144.477 245 150 L 245 250 L 145 250 C 139.477 250 135 254.477 135 260 C 135 265.522 139.477 270 145 270 L 245 270 L 245 370 C 245 375.522 249.477 380 255 380 C 260.522 380 265 375.522 265 370 L 265 270 L 365 270 C 370.522 270 375 265.522 375 260 C 375 254.477 370.522 250 365 250 L 265 250 L 265 150 C 265 144.477 260.522 140 255 140 z" />
</svg>