<svg xmlns="http://www.w3.org/2000/svg" version="1.1" viewBox="0 0 33 32" x="0px" y="0px">
    <title>close</title>
    <path
        d="M25.67 25.92c-0.207-0-0.394-0.084-0.53-0.22l-8.64-8.64-8.64 8.64c-0.134 0.125-0.314 0.201-0.511 0.201-0.414 0-0.75-0.336-0.75-0.75 0-0.198 0.077-0.378 0.202-0.512l8.64-8.64-8.64-8.64c-0.125-0.134-0.201-0.314-0.201-0.511 0-0.414 0.336-0.75 0.75-0.75 0.198 0 0.378 0.077 0.512 0.202l8.64 8.64 8.64-8.64c0.134-0.125 0.314-0.201 0.511-0.201 0.414 0 0.75 0.336 0.75 0.75 0 0.198-0.077 0.378-0.202 0.512l-8.64 8.64 8.64 8.64c0.136 0.136 0.219 0.323 0.219 0.53 0 0.414-0.335 0.75-0.749 0.75z"></path>
</svg>