<svg fill="#000000" xmlns="http://www.w3.org/2000/svg" viewBox="0 0 512 512" width="64px"
    height="64px">
    <path
        d="M 256 46.099609 C 202.22362 46.099609 148.44681 66.568312 107.50781 107.50781 C 25.628812 189.38581 25.628812 322.61219 107.50781 404.49219 C 148.44681 445.43119 202.224 465.90039 256 465.90039 C 309.776 465.90039 363.55219 445.43314 404.49219 404.49414 C 486.37019 322.61414 486.37019 189.38681 404.49219 107.50781 C 363.55169 66.568312 309.77638 46.099609 256 46.099609 z M 256 66.089844 C 304.655 66.089844 353.31156 84.609391 390.35156 121.65039 C 464.43256 195.73139 464.43256 316.27056 390.35156 390.35156 C 316.27056 464.43156 195.73139 464.43356 121.65039 390.35156 C 47.569391 316.27056 47.569391 195.73139 121.65039 121.65039 C 158.69039 84.610391 207.345 66.089844 256 66.089844 z M 362.39648 139.9375 C 360.47564 139.87337 358.52867 140.36283 356.80273 141.43164 L 225.7793 222.53906 C 225.76013 222.55093 225.74368 222.56614 225.72461 222.57812 C 225.55829 222.68263 225.40212 222.80186 225.24219 222.91602 C 225.09937 223.018 224.95107 223.11384 224.81445 223.22266 C 224.67472 223.33395 224.5459 223.4593 224.41211 223.57812 C 224.2616 223.71188 224.1065 223.84035 223.96484 223.98242 C 223.86422 224.08329 223.77419 224.19543 223.67773 224.30078 C 223.52374 224.46911 223.36643 224.63445 223.22461 224.8125 C 223.11969 224.94417 223.02826 225.08716 222.92969 225.22461 C 222.80921 225.39268 222.68401 225.55727 222.57422 225.73242 C 222.56398 225.74875 222.55117 225.76289 222.54102 225.7793 L 141.43164 356.80273 C 138.98864 360.74773 139.58228 365.85572 142.86328 369.13672 C 144.79328 371.06572 147.3535 372.06641 149.9375 372.06641 C 151.7485 372.06641 153.57127 371.57531 155.19727 370.57031 L 286.2207 289.46094 C 286.23756 289.4505 286.25275 289.43827 286.26953 289.42773 C 286.4442 289.3182 286.60776 289.19242 286.77539 289.07227 C 286.91282 288.97366 287.05584 288.88229 287.1875 288.77734 C 287.3425 288.65388 287.48515 288.51553 287.63281 288.38281 C 287.76435 288.26449 287.90265 288.15207 288.02734 288.02734 C 288.13819 287.9165 288.23795 287.794 288.34375 287.67773 C 288.4939 287.51263 288.64667 287.35016 288.78516 287.17578 C 288.8655 287.07463 288.93509 286.96394 289.01172 286.85938 C 289.15436 286.66466 289.2996 286.47199 289.42773 286.26758 C 289.43796 286.25126 289.4508 286.23709 289.46094 286.2207 L 370.56836 155.19727 C 373.01036 151.25127 372.41772 146.14333 369.13672 142.86133 C 367.29059 141.0152 364.86615 140.01996 362.39648 139.9375 z M 331.19336 180.80664 L 279.09961 264.95703 L 247.04297 232.90039 L 331.19336 180.80664 z M 232.90039 247.04297 L 264.95703 279.09961 L 180.80664 331.19336 L 232.90039 247.04297 z" />
</svg>