<svg fill="#000000" xmlns="http://www.w3.org/2000/svg" viewBox="0 0 512 512" width="64px"
    height="64px">
    <path
        d="M 249.67969 30 C 244.15669 30 239.67969 34.477 239.67969 40 L 239.67969 349.01758 L 158.29688 283.0332 C 154.00788 279.5572 147.71042 280.21391 144.23242 284.50391 C 140.75442 288.79391 141.41117 295.08936 145.70117 298.56836 L 243.30469 377.70312 C 243.31717 377.71347 243.32926 377.72409 243.3418 377.73438 L 243.38281 377.76758 C 243.61219 377.95345 243.84691 378.12833 244.08789 378.29102 C 244.34239 378.46283 244.60346 378.6197 244.86914 378.76562 C 244.97867 378.82588 245.0931 378.87737 245.20508 378.93359 C 245.35859 379.01051 245.51154 379.08772 245.66797 379.15625 C 245.81078 379.21893 245.95731 379.27397 246.10352 379.33008 C 246.24413 379.38395 246.38494 379.43708 246.52734 379.48438 C 246.66802 379.53114 246.80975 379.57462 246.95312 379.61523 C 247.11325 379.66057 247.27379 379.70109 247.43555 379.73828 C 247.56523 379.76807 247.69462 379.79758 247.82617 379.82227 C 248.01674 379.85814 248.20841 379.88545 248.40039 379.91016 C 248.51942 379.9254 248.63752 379.94406 248.75781 379.95508 C 249.06452 379.9834 249.37191 380 249.67969 380 C 249.98667 380 250.29362 379.98328 250.59961 379.95508 C 250.72335 379.94379 250.8444 379.92396 250.9668 379.9082 C 251.14576 379.88502 251.32418 379.85907 251.50195 379.82617 C 251.64059 379.80061 251.77749 379.77145 251.91406 379.74023 C 252.07313 379.70381 252.23116 379.66344 252.38867 379.61914 C 252.52567 379.58062 252.66233 379.54219 252.79688 379.49805 C 252.95603 379.44586 253.11259 379.38657 253.26953 379.32617 C 253.39769 379.27679 253.52679 379.23023 253.65234 379.17578 C 253.86673 379.08291 254.0782 378.97969 254.28711 378.87109 C 254.33993 378.84363 254.39483 378.82143 254.44727 378.79297 C 254.44805 378.79254 254.44843 378.79144 254.44922 378.79102 C 254.47985 378.77438 254.50856 378.75331 254.53906 378.73633 C 254.77219 378.60652 255.00203 378.46822 255.22656 378.31836 C 255.3102 378.26249 255.38887 378.20088 255.4707 378.14258 C 255.60649 378.04598 255.74496 377.95378 255.87695 377.84961 L 356.19531 298.64844 C 360.53031 295.22644 361.27066 288.93852 357.84766 284.60352 C 354.42566 280.26852 348.13873 279.52917 343.80273 282.95117 L 259.67969 349.36523 L 259.67969 40 C 259.67969 34.477 255.20269 30 249.67969 30 z M 80 400 C 74.477 400 70 404.478 70 410 C 70 415.522 74.477 420 80 420 L 420 420 C 425.522 420 430 415.522 430 410 C 430 404.478 425.522 400 420 400 L 80 400 z" />
</svg>