<svg fill="#000000" xmlns="http://www.w3.org/2000/svg" viewBox="0 0 512 512" width="64px"
    height="64px">
    <path
        d="M 255.98633 103.49609 C 179.61233 103.49609 106.84766 151.37912 51.097656 238.32812 C 48.116656 242.97612 49.470141 249.16353 54.119141 252.14453 C 58.768141 255.12653 64.952594 253.77405 67.933594 249.12305 C 119.87759 168.11105 186.66237 123.49414 255.98438 123.49414 C 325.32537 123.49414 392.12045 168.11005 444.06445 249.12305 C 445.97345 252.10205 449.19819 253.72656 452.49219 253.72656 C 454.34019 253.72656 456.20986 253.21553 457.88086 252.14453 C 462.53086 249.16353 463.88334 242.97713 460.90234 238.32812 C 405.15234 151.38012 332.37833 103.49609 255.98633 103.49609 z M 256.00195 165.8418 C 251.01524 165.8418 245.96962 166.15099 241.00586 166.76367 C 241.00458 166.76383 241.00324 166.76351 241.00195 166.76367 C 241.0013 166.76375 241.00065 166.76359 241 166.76367 C 180.38 174.24467 134.66797 226.00983 134.66797 287.17383 C 134.66797 354.07683 189.097 408.50586 256 408.50586 C 322.902 408.50586 377.33108 354.07587 377.33008 287.17188 C 377.33008 276.18238 375.85334 265.2731 372.93945 254.74609 C 372.9361 254.73383 372.93504 254.72124 372.93164 254.70898 C 358.43364 202.38498 310.35095 165.8418 256.00195 165.8418 z M 255.94531 185.8418 L 256 185.8418 C 297.176 185.8418 334.04322 210.94956 349.57422 248.22656 C 349.55604 248.22657 349.53771 248.22656 349.51953 248.22656 C 348.14673 248.22656 346.77861 248.19401 345.41602 248.13867 C 345.06653 248.12448 344.71986 248.09787 344.37109 248.08008 C 343.38824 248.02993 342.40647 247.97303 341.42969 247.89453 C 340.93257 247.85457 340.43881 247.80114 339.94336 247.75391 C 339.09125 247.67269 338.23951 247.58887 337.39258 247.48633 C 336.89837 247.42649 336.40642 247.3561 335.91406 247.28906 C 335.08466 247.17614 334.25751 247.05894 333.43359 246.92578 C 332.91452 246.8419 332.39766 246.75004 331.88086 246.6582 C 331.08406 246.5166 330.2892 246.36542 329.49805 246.20508 C 328.98716 246.10154 328.47719 245.99605 327.96875 245.88477 C 327.16845 245.7096 326.37211 245.52228 325.57812 245.32812 C 325.08655 245.20792 324.59453 245.08836 324.10547 244.96094 C 323.318 244.75577 322.53659 244.53619 321.75586 244.3125 C 321.25588 244.16925 320.75494 244.02968 320.25781 243.87891 C 319.45623 243.63579 318.66108 243.37576 317.86719 243.11328 C 317.4266 242.96762 316.98306 242.8293 316.54492 242.67773 C 315.6588 242.37119 314.78203 242.04333 313.90625 241.71289 C 313.5503 241.57858 313.19013 241.45462 312.83594 241.31641 C 311.61398 240.83957 310.40137 240.3411 309.20117 239.81836 C 309.16029 239.80055 309.12094 239.77958 309.08008 239.76172 C 307.93943 239.26313 306.80929 238.74432 305.68945 238.20508 C 305.28365 238.00967 304.8854 237.80029 304.48242 237.59961 C 303.71765 237.21877 302.95353 236.83515 302.19922 236.43555 C 301.77638 236.21154 301.35892 235.97789 300.93945 235.74805 C 300.21181 235.34936 299.48678 234.94729 298.76953 234.53125 C 298.33509 234.27924 297.90515 234.02002 297.47461 233.76172 C 296.7906 233.35135 296.10947 232.93585 295.43555 232.50977 C 295.00656 232.23853 294.58106 231.96308 294.15625 231.68555 C 293.48615 231.24778 292.82156 230.80287 292.16211 230.34961 C 291.739 230.05878 291.31707 229.76588 290.89844 229.46875 C 290.26057 229.01602 289.6292 228.55312 289.00195 228.08594 C 288.57851 227.77054 288.15483 227.45473 287.73633 227.13281 C 287.10173 226.64468 286.47651 226.1455 285.85352 225.64258 C 285.47735 225.3389 285.09841 225.03948 284.72656 224.73047 C 284.07369 224.18795 283.43226 223.631 282.79297 223.07227 C 282.44321 222.76656 282.0878 222.46675 281.74219 222.15625 C 281.04963 221.53409 280.37284 220.89506 279.69727 220.25391 C 279.43362 220.00368 279.16336 219.76089 278.90234 219.50781 C 277.9839 218.6173 277.08038 217.71046 276.19531 216.78516 C 275.90351 216.48008 275.62403 216.16231 275.33594 215.85352 C 274.7359 215.21037 274.13638 214.56726 273.55273 213.9082 C 273.22356 213.53649 272.9059 213.15405 272.58203 212.77734 C 272.05555 212.16499 271.5298 211.55115 271.01758 210.92578 C 270.67536 210.50796 270.34356 210.08175 270.00781 209.6582 C 269.53968 209.06766 269.07253 208.47651 268.61719 207.875 C 268.27574 207.42392 267.94156 206.96693 267.60742 206.50977 C 267.16519 205.90475 266.72805 205.2952 266.29883 204.67969 C 265.97168 204.21052 265.64955 203.73689 265.33008 203.26172 C 264.9211 202.65345 264.51925 202.03984 264.12305 201.42188 C 263.81804 200.94612 263.51412 200.4697 263.2168 199.98828 C 262.8115 199.33209 262.4162 198.6685 262.02539 198.00195 C 261.74644 197.52614 261.46677 197.05132 261.19531 196.57031 C 260.80393 195.87689 260.42636 195.17475 260.05078 194.4707 C 259.81203 194.02312 259.56821 193.57876 259.33594 193.12695 C 258.95009 192.37648 258.58257 191.61545 258.21484 190.85352 C 257.99731 190.40276 257.77165 189.95666 257.56055 189.50195 C 257.13543 188.58631 256.73067 187.65789 256.33203 186.72656 C 256.21211 186.44639 256.08233 186.1722 255.96484 185.89062 C 255.95811 185.87449 255.95204 185.85793 255.94531 185.8418 z M 235.31836 187.95312 C 235.35528 188.0558 235.39836 188.15528 235.43555 188.25781 C 235.89843 189.5345 236.38326 190.8001 236.88672 192.05469 C 236.97511 192.2749 237.06272 192.49532 237.15234 192.71484 C 237.6666 193.97469 238.19953 195.22432 238.75391 196.46094 C 238.84503 196.66418 238.93905 196.86575 239.03125 197.06836 C 239.60655 198.33276 240.20002 199.58511 240.81641 200.82422 C 240.87547 200.94295 240.9347 201.06119 240.99414 201.17969 C 241.63931 202.466 242.3057 203.74 242.99414 204.99805 C 243.05212 205.10399 243.11164 205.20872 243.16992 205.31445 C 243.8717 206.58774 244.5909 207.84851 245.33594 209.0918 C 245.34104 209.10031 245.34646 209.10868 245.35156 209.11719 C 245.37128 209.15007 245.39236 209.18198 245.41211 209.21484 C 245.99124 210.17864 246.59469 211.12506 247.19922 212.07031 C 247.66586 212.79992 248.14155 213.52189 248.62305 214.24023 C 249.04231 214.86577 249.46418 215.4886 249.89453 216.10547 C 250.36885 216.78532 250.85421 217.45584 251.3418 218.125 C 251.78864 218.73829 252.23555 219.3509 252.69336 219.95508 C 253.20364 220.62847 253.72632 221.29122 254.25 221.95312 C 254.70454 222.52767 255.15662 223.10415 255.62109 223.66992 C 256.1764 224.3463 256.74519 225.01018 257.31445 225.67383 C 257.77382 226.20938 258.22896 226.74825 258.69727 227.27539 C 259.26203 227.9111 259.84238 228.53098 260.41992 229.1543 C 260.93346 229.70856 261.44138 230.26818 261.96484 230.8125 C 262.53287 231.40315 263.11581 231.97784 263.69531 232.55664 C 264.21859 233.07929 264.73511 233.60824 265.26758 234.12109 C 265.98767 234.81466 266.72632 235.48866 267.46289 236.16406 C 267.88461 236.55076 268.29759 236.94746 268.72461 237.32812 C 269.58806 238.09785 270.47081 238.84317 271.35547 239.58789 C 271.95342 240.09126 272.5547 240.59026 273.16211 241.08203 C 274.10334 241.84405 275.04835 242.60221 276.01172 243.33594 C 276.45234 243.67153 276.90641 243.98877 277.35156 244.31836 C 278.16416 244.92001 278.97342 245.526 279.80078 246.10742 C 280.40749 246.53378 281.02812 246.94014 281.64258 247.35547 C 282.32534 247.81698 283.00514 248.28273 283.69727 248.73047 C 284.32754 249.13819 284.96956 249.52765 285.60742 249.92383 C 286.32452 250.36922 287.03916 250.81742 287.76562 251.24805 C 288.37968 251.61204 289.00245 251.96113 289.62305 252.31445 C 290.36485 252.73679 291.10651 253.15948 291.85742 253.56641 C 292.53282 253.93239 293.21585 254.28334 293.89844 254.63672 C 294.61992 255.01024 295.341 255.38291 296.07031 255.74219 C 296.74597 256.07503 297.42717 256.39631 298.10938 256.7168 C 298.86337 257.07102 299.61908 257.4208 300.38086 257.75977 C 301.07192 258.06726 301.76755 258.36535 302.46484 258.66016 C 303.22746 258.98259 303.99186 259.30033 304.76172 259.60742 C 305.46389 259.88752 306.16894 260.16053 306.87695 260.42773 C 307.67079 260.72733 308.46857 261.01756 309.26953 261.30078 C 309.95742 261.54401 310.64685 261.78264 311.33984 262.01367 C 312.16042 262.28725 312.985 262.55034 313.8125 262.80664 C 314.71823 263.08717 315.62339 263.36931 316.53711 263.62891 C 316.71953 263.68073 316.90125 263.73417 317.08398 263.78516 C 318.42361 264.15896 319.7712 264.50773 321.12695 264.83594 C 321.2774 264.87236 321.42748 264.90946 321.57812 264.94531 C 322.92376 265.2656 324.2783 265.56129 325.63867 265.83594 C 325.83532 265.87564 326.03157 265.91634 326.22852 265.95508 C 327.59204 266.22329 328.96268 266.46782 330.33984 266.68945 C 330.50708 266.71636 330.67437 266.74331 330.8418 266.76953 C 332.25065 266.99018 333.66597 267.18629 335.08789 267.35742 C 335.22061 267.37339 335.3535 267.38876 335.48633 267.4043 C 336.94428 267.57485 338.40847 267.72219 339.87891 267.83984 C 339.96404 267.84665 340.04959 267.85079 340.13477 267.85742 C 341.64884 267.97533 343.16734 268.06801 344.69336 268.12891 C 344.72846 268.13031 344.76372 268.13144 344.79883 268.13281 C 346.36682 268.19401 347.94029 268.22656 349.51953 268.22656 C 350.67031 268.22656 351.82477 268.20461 352.98047 268.17188 C 353.29944 268.16277 353.61834 268.14833 353.9375 268.13672 C 354.46883 268.1175 354.99961 268.10434 355.53125 268.07812 C 356.72825 274.35013 357.33203 280.74483 357.33203 287.17383 C 357.33203 343.04883 311.875 388.50586 256 388.50586 C 200.125 388.50586 154.66797 343.04883 154.66797 287.17383 C 154.66797 238.86683 188.80436 197.57812 235.31836 187.95312 z" />
</svg>