<svg fill="#000000" xmlns="http://www.w3.org/2000/svg" viewBox="0 0 512 512" width="64px"
    height="64px">
    <path
        d="M 256 46.097656 C 202.22325 46.097656 148.44731 66.568312 107.50781 107.50781 C 67.844812 147.17181 46 199.907 46 256 C 46 312.093 67.843812 364.82819 107.50781 404.49219 C 138.61381 435.59719 177.9122 455.86456 221.1582 463.10156 C 232.8492 465.05756 244.57609 466.0293 256.24609 466.0293 C 284.03461 466.0293 311.48686 460.50186 337.29102 449.66016 C 339.21044 452.08738 341.26033 454.39757 343.43164 456.56836 C 358.54064 471.67836 378.631 480 400 480 C 421.369 480 441.45836 471.67736 456.56836 456.56836 C 471.67836 441.45936 480 421.369 480 400 C 480 378.631 471.67736 358.54159 456.56836 343.43359 C 456.56836 343.43359 456.56836 343.43164 456.56836 343.43164 C 454.40126 341.26402 452.0938 339.21894 449.67188 337.30273 C 465.06722 300.66178 469.71692 260.68777 463.10156 221.1582 C 455.86456 177.9132 435.59719 138.61381 404.49219 107.50781 C 363.55269 66.568312 309.77675 46.097656 256 46.097656 z M 256 66.089844 C 304.649 66.089844 353.31456 84.614391 390.35156 121.65039 C 444.20556 175.50539 460.46666 256.75975 432.34766 326.84375 C 431.96939 326.67705 431.58581 326.52404 431.20508 326.36328 C 430.94349 326.25283 430.68264 326.14084 430.41992 326.0332 C 429.48845 325.65157 428.55228 325.28163 427.60742 324.93555 C 427.59834 324.93222 427.58916 324.92911 427.58008 324.92578 C 426.60644 324.56955 425.6252 324.23617 424.63867 323.91797 C 424.4218 323.84802 424.20378 323.78295 423.98633 323.71484 C 423.2304 323.47809 422.47158 323.25146 421.70898 323.03711 C 421.42743 322.95797 421.14569 322.88076 420.86328 322.80469 C 420.06695 322.59017 419.2675 322.38729 418.46484 322.19727 C 418.27137 322.15146 418.07859 322.10297 417.88477 322.05859 C 416.8817 321.82893 415.87476 321.61507 414.86328 321.42383 C 414.7191 321.39657 414.57403 321.37413 414.42969 321.34766 C 413.55145 321.18656 412.67061 321.04016 411.78711 320.9082 C 411.53674 320.87081 411.28591 320.83778 411.03516 320.80273 C 410.23854 320.6914 409.44066 320.59143 408.64062 320.50391 C 408.39067 320.47656 408.14087 320.44884 407.89062 320.42383 C 406.93802 320.32862 405.98355 320.24874 405.02734 320.1875 C 404.96216 320.18332 404.89723 320.17589 404.83203 320.17188 C 403.79104 320.10775 402.74895 320.06655 401.70508 320.04297 C 401.4714 320.03768 401.23769 320.03841 401.00391 320.03516 C 400.20613 320.0241 399.40796 320.02431 398.60938 320.03711 C 398.3027 320.04201 397.99619 320.05016 397.68945 320.05859 C 396.93998 320.07924 396.19088 320.11053 395.44141 320.15234 C 395.14515 320.16884 394.84894 320.18331 394.55273 320.20312 C 393.53388 320.27139 392.51349 320.35321 391.49609 320.46094 C 383.57691 321.30094 375.85685 323.33321 368.5957 326.43555 C 366.52109 327.32189 364.48349 328.2957 362.49023 329.35352 C 355.51385 333.05594 349.07277 337.79095 343.43164 343.43164 C 330.53764 356.32464 322.38094 373.39409 320.46094 391.49609 C 320.35307 392.51385 320.27149 393.5336 320.20312 394.55273 C 320.18263 394.85815 320.16735 395.16328 320.15039 395.46875 C 320.11096 396.17912 320.08095 396.88927 320.06055 397.59961 C 320.05003 397.9656 320.04064 398.33136 320.03516 398.69727 C 320.02401 399.44109 320.02364 400.18465 320.0332 400.92773 C 320.03655 401.18808 320.03514 401.44877 320.04102 401.70898 C 320.06417 402.73338 320.10574 403.75577 320.16797 404.77734 C 320.17766 404.93643 320.19249 405.0949 320.20312 405.25391 C 320.26059 406.11325 320.3311 406.97174 320.41602 407.82812 C 320.44556 408.12612 320.48081 408.42313 320.51367 408.7207 C 320.59608 409.4671 320.68786 410.21168 320.79102 410.95508 C 320.83179 411.24894 320.87201 411.5426 320.91602 411.83594 C 321.03748 412.64566 321.1724 413.45252 321.31836 414.25781 C 321.3569 414.47047 321.38944 414.68417 321.42969 414.89648 C 321.61714 415.88544 321.82463 416.87068 322.04883 417.85156 C 322.10197 418.08403 322.1616 418.3149 322.2168 418.54688 C 322.39789 419.30806 322.58985 420.06678 322.79297 420.82227 C 322.87644 421.13271 322.96165 421.44254 323.04883 421.75195 C 323.24099 422.43404 323.44421 423.1123 323.6543 423.78906 C 323.75318 424.10756 323.84834 424.4269 323.95117 424.74414 C 324.25774 425.68997 324.57839 426.63245 324.91992 427.56641 C 324.95559 427.66394 324.9952 427.76002 325.03125 427.85742 C 325.34201 428.69708 325.66699 429.53035 326.00586 430.35938 C 326.13261 430.66942 326.26582 430.97668 326.39648 431.28516 C 326.54636 431.63904 326.68874 431.9959 326.84375 432.34766 C 256.75975 460.46666 175.50439 444.20461 121.65039 390.34961 C 85.763391 354.46361 66 306.751 66 256 C 66 205.249 85.763391 157.53639 121.65039 121.65039 C 158.69539 84.605391 207.339 66.089844 256 66.089844 z M 255.99805 144.19336 C 226.82705 144.19336 203.0957 167.92666 203.0957 197.09766 C 203.0957 212.60121 209.79836 226.56717 220.45898 236.25195 C 190.71417 243.71344 168.61914 270.66749 168.61914 302.69336 L 168.61914 330 C 168.61914 335.522 173.09614 340 178.61914 340 L 333.37695 340 C 338.89895 340 343.37695 335.522 343.37695 330 L 343.37695 302.69336 C 343.37695 270.66749 321.28193 243.71344 291.53711 236.25195 C 302.19773 226.56717 308.90039 212.60121 308.90039 197.09766 C 308.90039 167.92666 285.16905 144.19336 255.99805 144.19336 z M 255.99805 164.19336 C 274.14105 164.19336 288.90039 178.95466 288.90039 197.09766 C 288.90039 215.24066 274.14105 230 255.99805 230 C 237.85505 230 223.0957 215.2387 223.0957 197.0957 C 223.0957 178.9527 237.85505 164.19336 255.99805 164.19336 z M 237.11914 254.19336 L 274.87695 254.19336 C 301.61995 254.19336 323.37695 275.95036 323.37695 302.69336 L 323.37695 320 L 188.61914 320 L 188.61914 302.69336 C 188.61914 275.95036 210.37614 254.19336 237.11914 254.19336 z M 400.33008 339.91602 C 400.63141 339.91801 400.93296 339.92506 401.23438 339.93164 C 401.70314 339.94188 402.17183 339.95716 402.64062 339.97852 C 402.95602 339.99288 403.2706 340.00794 403.58594 340.02734 C 404.06119 340.05658 404.53677 340.09601 405.01172 340.13672 C 405.3025 340.16165 405.59415 340.18366 405.88477 340.21289 C 406.44391 340.26913 407.0023 340.336 407.56055 340.4082 C 407.80807 340.44022 408.05544 340.46875 408.30273 340.50391 C 408.99332 340.60208 409.68267 340.71321 410.37109 340.83594 C 410.67954 340.89093 410.987 340.95569 411.29492 341.01562 C 411.73855 341.10197 412.1826 341.18854 412.625 341.28516 C 412.94701 341.35548 413.26857 341.43203 413.58984 341.50781 C 414.05627 341.61782 414.52161 341.732 414.98633 341.85352 C 415.27194 341.9282 415.55689 342.003 415.8418 342.08203 C 416.33006 342.21748 416.81672 342.36346 417.30273 342.51172 C 417.57338 342.59428 417.84534 342.67323 418.11523 342.75977 C 418.72697 342.95592 419.33584 343.16424 419.94336 343.38086 C 420.11063 343.4405 420.27838 343.4974 420.44531 343.55859 C 421.11991 343.80591 421.79234 344.06709 422.46094 344.33984 C 422.77383 344.46748 423.08501 344.60506 423.39648 344.73828 C 423.80306 344.91219 424.20925 345.08609 424.61328 345.26953 C 424.94738 345.42119 425.27906 345.5801 425.61133 345.73828 C 426.00711 345.92674 426.40186 346.11868 426.79492 346.31641 C 427.11343 346.4766 427.43142 346.6384 427.74805 346.80469 C 428.1494 347.01551 428.54906 347.23445 428.94727 347.45508 C 429.2609 347.62883 429.57512 347.79867 429.88672 347.97852 C 430.40594 348.27822 430.9203 348.58959 431.43359 348.90625 C 431.58753 349.0012 431.7431 349.09102 431.89648 349.1875 C 435.73348 351.6015 439.27778 354.42227 442.42578 357.57227 C 442.42578 357.57227 442.42578 357.57422 442.42578 357.57422 C 453.75878 368.90622 460 383.974 460 400 C 460 416.026 453.75878 431.09378 442.42578 442.42578 C 431.09378 453.75878 416.026 460 400 460 C 383.974 460 368.90622 453.75883 357.57422 442.42383 C 354.42322 439.27583 351.6015 435.73348 349.1875 431.89648 C 349.1875 431.89648 349.1875 431.89453 349.1875 431.89453 C 348.719 431.14984 348.26848 430.39988 347.83594 429.64258 C 347.40339 428.88527 346.9885 428.12043 346.5918 427.35156 C 346.19536 426.58322 345.8178 425.81008 345.45703 425.03125 C 345.45703 425.03125 345.45703 425.0293 345.45703 425.0293 C 345.09604 424.24993 344.75117 423.46654 344.42578 422.67773 C 343.775 421.10013 343.19661 419.50353 342.6875 417.89453 C 342.43294 417.09003 342.19588 416.28342 341.97656 415.47266 C 341.75725 414.6619 341.55529 413.84721 341.37109 413.03125 C 341.1869 412.21529 341.02029 411.39823 340.87109 410.57812 C 340.7219 409.75802 340.59088 408.93451 340.47656 408.11133 C 340.36234 407.28879 340.26507 406.46518 340.18555 405.64062 C 340.18555 405.64062 340.18555 405.63867 340.18555 405.63867 C 340.10599 404.81347 340.04296 403.98827 339.99805 403.16211 C 339.86331 400.68362 339.8837 398.20243 340.05859 395.73438 C 340.11684 394.91234 340.19279 394.0922 340.28516 393.27344 C 340.28516 393.27344 340.28516 393.27148 340.28516 393.27148 C 340.37762 392.45208 340.48678 391.63538 340.61328 390.82031 C 341.1193 387.56004 341.8974 384.33792 342.94336 381.18945 C 343.20466 380.40292 343.4846 379.62066 343.7793 378.84375 C 343.7793 378.84375 343.7793 378.8418 343.7793 378.8418 C 344.07402 378.06488 344.38489 377.29358 344.71289 376.52734 C 344.71289 376.52734 344.71289 376.52539 344.71289 376.52539 C 345.04092 375.75915 345.38685 374.99864 345.74805 374.24414 C 345.74805 374.24414 345.74805 374.24219 345.74805 374.24219 C 346.10927 373.48769 346.48854 372.73975 346.88281 371.99805 C 346.88281 371.99805 346.88281 371.99609 346.88281 371.99609 C 347.27738 371.25389 347.6877 370.51935 348.11523 369.79102 C 348.54277 369.06269 348.98688 368.34035 349.44727 367.62695 C 350.36803 366.20017 351.3548 364.80599 352.40625 363.44531 C 352.93198 362.76497 353.47303 362.09191 354.03125 361.42969 C 354.58947 360.76746 355.16332 360.1157 355.75391 359.47266 C 356.3445 358.82961 356.95137 358.19703 357.57422 357.57422 C 358.2657 356.88267 358.97309 356.21427 359.68945 355.5625 C 359.86649 355.40141 360.04806 355.2485 360.22656 355.08984 C 360.75738 354.61809 361.29256 354.1533 361.83594 353.70312 C 362.09616 353.48753 362.36004 353.279 362.62305 353.06836 C 363.09909 352.68711 363.57763 352.31223 364.0625 351.94727 C 364.34031 351.73815 364.61978 351.53188 364.90039 351.32812 C 365.40525 350.96155 365.91608 350.60506 366.42969 350.25586 C 366.69497 350.07549 366.95903 349.89252 367.22656 349.7168 C 367.78574 349.34952 368.35129 348.99734 368.91992 348.65039 C 369.14366 348.51387 369.36469 348.37165 369.58984 348.23828 C 370.38484 347.76739 371.18639 347.31233 371.99805 346.88086 C 372.00191 346.87881 372.0059 346.87705 372.00977 346.875 C 372.82901 346.43973 373.65935 346.02777 374.49414 345.63281 C 374.72832 345.52201 374.96584 345.42012 375.20117 345.3125 C 375.80315 345.03723 376.40648 344.76809 377.01562 344.51367 C 377.31384 344.38911 377.61422 344.2719 377.91406 344.15234 C 378.4535 343.93727 378.99465 343.72812 379.53906 343.5293 C 379.86781 343.40923 380.19689 343.29186 380.52734 343.17773 C 381.10335 342.9788 381.6828 342.79024 382.26367 342.60938 C 382.54225 342.52264 382.81999 342.43218 383.09961 342.34961 C 383.80592 342.14103 384.51604 341.94953 385.22852 341.76758 C 385.389 341.7266 385.54821 341.68025 385.70898 341.64062 C 387.50717 341.19737 389.32249 340.83961 391.15039 340.56641 C 391.35448 340.5359 391.55929 340.51275 391.76367 340.48438 C 392.45116 340.38893 393.13974 340.30373 393.83008 340.23242 C 394.11867 340.20261 394.40825 340.17793 394.69727 340.15234 C 395.32121 340.09712 395.94671 340.05111 396.57227 340.01562 C 396.8737 339.99853 397.17484 339.98321 397.47656 339.9707 C 398.09781 339.94495 398.71963 339.93007 399.3418 339.92383 C 399.67125 339.92053 400.00047 339.91383 400.33008 339.91602 z M 390 360 C 384.478 360 380 364.478 380 370 L 380 380 L 370 380 C 364.478 380 360 384.478 360 390 C 360 395.522 364.478 400 370 400 L 380 400 L 380 410 L 370 410 C 364.478 410 360 414.478 360 420 C 360 425.522 364.478 430 370 430 L 380 430 L 380 440 C 380 445.522 384.478 450 390 450 C 395.522 450 400 445.522 400 440 L 400 430 L 410 430 L 410 440 C 410 445.522 414.478 450 420 450 C 425.522 450 430 445.522 430 440 L 430 430 L 436.5 430 C 442.022 430 446.5 425.522 446.5 420 C 446.5 414.478 442.022 410 436.5 410 L 430 410 L 430 400 L 436.5 400 C 442.022 400 446.5 395.522 446.5 390 C 446.5 384.478 442.022 380 436.5 380 L 430 380 L 430 370 C 430 364.478 425.522 360 420 360 C 414.478 360 410 364.478 410 370 L 410 380 L 400 380 L 400 370 C 400 364.478 395.522 360 390 360 z M 400 400 L 410 400 L 410 410 L 400 410 L 400 400 z" />
</svg>