<svg fill="#000000" xmlns="http://www.w3.org/2000/svg" viewBox="0 0 512 512" width="64px"
    height="64px">
    <path
        d="M 90 80 C 84.477 80 80 84.477 80 90 L 80 200 L 80 310 L 80 420 C 80 425.522 84.477 430 90 430 L 200 430 L 310 430 L 420 430 C 425.522 430 430 425.522 430 420 L 430 310 L 430 200 L 430 90 C 430 84.477 425.522 80 420 80 L 310 80 L 200 80 L 90 80 z M 100 100 L 190 100 L 190 190 L 100 190 L 100 100 z M 210 100 L 300 100 L 300 190 L 210 190 L 210 100 z M 320 100 L 410 100 L 410 190 L 320 190 L 320 100 z M 100 210 L 190 210 L 190 300 L 100 300 L 100 210 z M 210 210 L 300 210 L 300 300 L 210 300 L 210 210 z M 320 210 L 410 210 L 410 300 L 320 300 L 320 210 z M 100 320 L 190 320 L 190 410 L 100 410 L 100 320 z M 210 320 L 300 320 L 300 410 L 210 410 L 210 320 z M 320 320 L 410 320 L 410 410 L 320 410 L 320 320 z" />
</svg>