<svg fill="#000000" xmlns="http://www.w3.org/2000/svg" viewBox="0 0 512 512" width="64px"
    height="64px">
    <path
        d="M 205.03906 50.621094 C 199.51606 50.621094 195.03906 55.098094 195.03906 60.621094 L 195.03906 85.154297 C 189.17906 87.259297 183.54273 89.578844 178.17773 92.089844 L 160.55273 74.742188 C 156.63873 70.890187 150.35275 70.916781 146.46875 74.800781 L 74.800781 146.46875 C 70.916781 150.35175 70.890187 156.64069 74.742188 160.55469 L 92.089844 178.17969 C 89.579844 183.54469 87.259297 189.17906 85.154297 195.03906 L 60.621094 195.03906 C 55.098094 195.03906 50.621094 199.51606 50.621094 205.03906 L 50.621094 306.60352 C 50.621094 312.12552 55.098094 316.60352 60.621094 316.60352 L 85.15625 316.60352 C 87.24225 322.41352 89.571953 328.13003 92.126953 333.70703 L 74.800781 351.03125 C 70.902781 354.92925 70.894203 361.24825 74.783203 365.15625 L 146.45117 437.18555 C 148.32517 439.06855 150.87134 440.12786 153.52734 440.13086 L 153.53906 440.13086 C 156.19106 440.13086 158.73633 439.07617 160.61133 437.20117 L 178.20508 419.60742 C 184.07008 422.41342 189.64906 424.74186 195.03906 426.63086 L 195.03906 451.37891 C 195.03906 456.90091 199.51606 461.37891 205.03906 461.37891 L 306.60156 461.37891 C 312.12356 461.37891 316.60161 456.90095 316.59961 451.37695 L 316.59961 426.63477 C 321.91761 424.77877 327.47973 422.47636 333.67773 419.56836 L 350.9707 437.14258 C 352.8407 439.04158 355.39259 440.11791 358.05859 440.12891 L 358.09961 440.12891 C 360.75061 440.12891 363.29392 439.07422 365.16992 437.19922 L 437.19922 365.16992 C 439.08422 363.28492 440.13891 360.72459 440.12891 358.05859 C 440.11891 355.39259 439.04158 352.8407 437.14258 350.9707 L 419.56836 333.67773 C 422.47636 327.47973 424.77877 321.91761 426.63477 316.59961 L 451.37695 316.59961 C 456.89895 316.59961 461.37695 312.12161 461.37695 306.59961 L 461.37695 205.03711 C 461.37695 199.51411 456.89895 195.03711 451.37695 195.03711 L 426.62891 195.03711 C 424.74091 189.64711 422.41247 184.06813 419.60547 178.20312 L 437.19922 160.60938 C 439.07722 158.73137 440.13191 156.18239 440.12891 153.52539 C 440.12591 150.86939 439.06659 148.32322 437.18359 146.44922 L 365.1543 74.78125 C 361.2463 70.89325 354.9273 70.900828 351.0293 74.798828 L 333.70312 92.123047 C 328.12712 89.569047 322.40961 87.239297 316.59961 85.154297 L 316.59961 60.621094 C 316.59961 55.098094 312.12161 50.621094 306.59961 50.621094 L 205.03906 50.621094 z M 215.03906 70.621094 L 296.60156 70.621094 L 296.60156 92.314453 C 296.60156 96.658453 299.40406 100.50498 303.53906 101.83398 C 313.09406 104.90598 322.43578 108.70958 331.30078 113.14258 C 335.15078 115.06758 339.80075 114.31253 342.84375 111.26953 L 358.11719 95.994141 L 415.9707 153.55664 L 400.36914 169.15625 C 397.28414 172.24125 396.55536 176.9708 398.56836 180.8418 C 403.71236 190.7328 407.35694 199.54711 409.71094 207.78711 C 410.93694 212.08011 414.85922 215.03906 419.32422 215.03906 L 441.37891 215.03906 L 441.37891 296.60156 L 419.32422 296.60156 C 414.85922 296.60156 410.93794 299.56052 409.71094 303.85352 C 407.39694 311.94952 403.93809 320.41578 398.49609 331.30078 C 396.55809 335.17678 397.33678 339.86039 400.42578 342.90039 L 415.93164 358.1582 L 358.1582 415.93164 L 342.90039 400.42578 C 339.86039 397.33678 335.17678 396.55809 331.30078 398.49609 C 320.41678 403.93909 311.95052 407.39794 303.85352 409.71094 C 299.56052 410.93694 296.60156 414.85922 296.60156 419.32422 L 296.60156 441.37891 L 215.03906 441.37891 L 215.03906 419.32422 C 215.03906 414.85922 212.07816 410.93598 207.78516 409.70898 C 199.54616 407.35498 190.7338 403.71041 180.8418 398.56641 C 176.9708 396.55441 172.24125 397.28119 169.15625 400.36719 L 153.55664 415.96875 L 95.994141 358.11719 L 111.26953 342.8418 C 114.31353 339.7978 115.06758 335.14983 113.14258 331.29883 C 108.71058 322.43583 104.90598 313.09506 101.83398 303.53906 C 100.50498 299.40506 96.658453 296.59961 92.314453 296.59961 L 70.621094 296.59961 L 70.621094 215.03906 L 92.316406 215.03906 C 96.660406 215.03906 100.50694 212.23461 101.83594 208.09961 C 104.99194 198.28261 108.77227 189.1118 113.07227 180.8418 C 115.07127 176.9968 114.36813 172.30284 111.32812 169.21484 L 95.957031 153.5957 L 153.5957 95.955078 L 169.21484 111.32617 C 172.30184 114.36517 176.9978 115.06831 180.8418 113.07031 C 189.1128 108.77031 198.28456 104.98998 208.10156 101.83398 C 212.23656 100.50498 215.03906 96.658453 215.03906 92.314453 L 215.03906 70.621094 z M 255.84375 118.16016 C 179.92475 118.16016 118.16016 179.92475 118.16016 255.84375 C 118.16016 331.93475 179.92475 393.83984 255.84375 393.83984 C 331.93475 393.83984 393.83984 331.93475 393.83984 255.84375 C 393.83984 179.92475 331.93375 118.16016 255.84375 118.16016 z M 255.84375 138.16016 C 320.90575 138.16016 373.83984 190.95375 373.83984 255.84375 C 373.83984 320.90575 320.90575 373.83984 255.84375 373.83984 C 190.95275 373.83984 138.16016 320.90575 138.16016 255.84375 C 138.16016 190.95275 190.95275 138.16016 255.84375 138.16016 z" />
</svg>