<svg fill="#000000" xmlns="http://www.w3.org/2000/svg" viewBox="0 0 512 512" width="64px"
    height="64px">
    <path
        d="M 89.566406 55.541016 C 89.228411 55.541949 88.888359 55.559891 88.544922 55.595703 C 83.051922 56.169703 79.062719 61.087078 79.636719 66.580078 L 86.236328 129.74805 C 86.721328 134.40105 90.367672 138.09363 95.013672 138.64062 L 159.125 146.18359 C 159.522 146.22959 159.91564 146.25195 160.30664 146.25195 C 165.30664 146.25195 169.62656 142.50792 170.22656 137.41992 C 170.87156 131.93492 166.94789 126.96631 161.46289 126.32031 L 114.17188 120.75586 C 184.79943 59.133081 292.44792 61.9323 359.69531 129.17969 C 429.87731 199.36169 429.87731 313.55628 359.69531 383.73828 C 325.69831 417.73628 280.49797 436.46094 232.41797 436.46094 C 184.33797 436.46094 139.13667 417.73628 105.13867 383.73828 C 101.23367 379.83428 94.900094 379.83428 90.996094 383.73828 C 87.091094 387.64428 87.091094 393.97586 90.996094 397.88086 C 128.77209 435.65586 178.99597 456.46094 232.41797 456.46094 C 285.83997 456.46094 336.06389 435.65686 373.83789 397.88086 C 451.81689 319.90186 451.81689 193.01711 373.83789 115.03711 C 299.929 41.129162 182.09662 37.283693 103.60156 103.47461 L 99.529297 64.501953 C 98.991172 59.352266 94.636337 55.527019 89.566406 55.541016 z M 270.35352 147.19531 C 265.70251 147.09611 261.46984 150.27358 260.40234 154.98633 L 239.44336 247.49805 L 125.78125 267.55664 C 120.34225 268.51664 116.71188 273.70358 117.67188 279.14258 C 118.52788 283.99358 122.74681 287.40625 127.50781 287.40625 C 128.08481 287.40625 128.67081 287.35495 129.25781 287.25195 L 249.46484 266.03906 C 253.43184 265.33806 256.59147 262.32839 257.48047 258.40039 L 279.9082 159.4043 C 281.1282 154.0183 277.75028 148.66336 272.36328 147.44336 C 271.68978 147.29036 271.01795 147.20948 270.35352 147.19531 z" />
</svg>