<svg fill="#000000" xmlns="http://www.w3.org/2000/svg" viewBox="0 0 512 512" width="64px"
    height="64px">
    <path
        d="M430,470H320c-5.522,0-10-4.478-10-10V340c0-29.775-24.225-54-54-54c-29.776,0-54,24.225-54,54v120 c0,5.522-4.477,10-10,10H80c-5.523,0-10-4.478-10-10V210c0-2.884,1.245-5.627,3.415-7.526l176-154 c3.786-3.313,9.444-3.297,13.213,0.038l174,154C438.772,204.41,440,207.136,440,210v250C440,465.522,435.522,470,430,470z M330,450h90V214.503L255.962,69.321L90,214.538V450h92V340c0-40.804,33.196-74,74-74s74,33.196,74,74V450z" />
</svg>