<svg fill="#000000" xmlns="http://www.w3.org/2000/svg" viewBox="0 0 512 512" width="64px"
    height="64px">
    <path
        d="M 189.7168 20.003906 C 186.83651 20.087207 184.01291 21.409391 182.10547 23.861328 C 178.71447 28.221328 179.50037 34.503531 183.85938 37.894531 L 250.85156 90 L 105 90 C 74.673 90 50 114.673 50 145 L 50 405 C 50 435.327 74.673 460 105 460 L 405 460 C 435.327 460 460 435.327 460 405 L 460 145 C 460 114.673 435.327 90 405 90 L 304.14258 90 L 337.07031 57.072266 C 340.97531 53.166266 340.97531 46.834688 337.07031 42.929688 C 333.16331 39.024687 326.83373 39.024687 322.92773 42.929688 L 279.16992 86.6875 L 196.13867 22.107422 C 194.23117 20.624297 191.95702 19.939117 189.7168 20.003906 z M 105 110 L 405 110 C 424.299 110 440 125.701 440 145 L 440 405 C 440 424.299 424.299 440 405 440 L 105 440 C 85.701 440 70 424.299 70 405 L 70 145 C 70 125.701 85.701 110 105 110 z M 349.56641 200.00781 C 347.32747 200.10389 345.10605 200.94984 343.31055 202.56641 L 260 277.54688 L 260 230 C 260 226.051 257.67536 222.47123 254.06836 220.86523 C 250.46136 219.25723 246.24555 219.92441 243.31055 222.56641 L 143.31055 312.56641 C 139.20455 316.26041 138.87241 322.58545 142.56641 326.68945 C 144.54241 328.88445 147.26691 330 150.00391 330 C 152.38791 330 154.77945 329.15359 156.68945 327.43359 L 240 252.45312 L 240 300 C 240 303.949 242.32364 307.52872 245.93164 309.13672 C 249.53864 310.74472 253.75445 310.07559 256.68945 307.43359 L 356.68945 217.43359 C 360.79445 213.73859 361.12859 207.41555 357.43359 203.31055 C 355.35459 201.00036 352.44504 199.88428 349.56641 200.00781 z" />
</svg>