<svg fill="#000000" xmlns="http://www.w3.org/2000/svg" viewBox="0 0 512 512" width="64px"
    height="64px">
    <path
        d="M 125 70 C 94.673 70 70 94.673 70 125 L 70 385 C 70 415.327 94.673 440 125 440 L 385 440 C 415.327 440 440 415.327 440 385 L 440 125 C 440 94.673 415.327 70 385 70 L 125 70 z M 125 90 L 385 90 C 404.299 90 420 105.701 420 125 L 420 385 C 420 404.299 404.299 420 385 420 L 125 420 C 105.701 420 90 404.299 90 385 L 90 125 C 90 105.701 105.701 90 125 90 z M 365 110 C 345.701 110 330 125.701 330 145 C 330 164.299 345.701 180 365 180 C 384.299 180 400 164.299 400 145 C 400 125.701 384.299 110 365 110 z M 365 130 C 373.271 130 380 136.729 380 145 C 380 153.271 373.271 160 365 160 C 356.729 160 350 153.271 350 145 C 350 136.729 356.729 130 365 130 z M 255 150 C 197.103 150 150 197.103 150 255 C 150 312.897 197.103 360 255 360 C 312.897 360 360 312.897 360 255 C 360 197.103 312.897 150 255 150 z M 255 170 C 301.869 170 340 208.131 340 255 C 340 301.869 301.869 340 255 340 C 208.131 340 170 301.869 170 255 C 170 208.131 208.131 170 255 170 z" />
</svg>