<svg fill="#000000" xmlns="http://www.w3.org/2000/svg" viewBox="0 0 512 512" width="64px"
    height="64px">
    <path
        d="M 427.18555 62.166016 C 426.25794 62.213328 425.32833 62.390125 424.42383 62.703125 L 56.728516 189.98242 C 52.987516 191.27742 50.361203 194.65656 50.033203 198.60156 C 49.705203 202.54656 51.734938 206.31494 55.210938 208.21094 L 208.19336 291.6543 L 291.63672 444.63672 C 293.39872 447.86772 296.77611 449.84766 300.41211 449.84766 C 300.68811 449.84766 300.96614 449.8355 301.24414 449.8125 C 305.18914 449.4835 308.57023 446.85914 309.86523 443.11914 L 437.14648 75.423828 C 438.39848 71.805828 437.47458 67.788078 434.76758 65.080078 C 432.73583 63.049078 429.96837 62.024078 427.18555 62.166016 z M 389.87891 95.826172 L 213.7832 271.92188 L 84.644531 201.48242 L 389.87891 95.826172 z M 404.02539 109.96484 L 298.36328 415.20312 L 227.92578 286.06445 L 404.02539 109.96484 z" />
</svg>