<svg fill="#000000" xmlns="http://www.w3.org/2000/svg" viewBox="0 0 512 512" width="64px"
    height="64px">
    <path
        d="M 204 40 C 190.767 40 180 50.767 180 64 L 180 80 L 90 80 C 84.477 80 80 84.477 80 90 C 80 95.523 84.477 100 90 100 L 190 100 L 320 100 L 420 100 C 425.522 100 430 95.523 430 90 C 430 84.477 425.522 80 420 80 L 330 80 L 330 64 C 330 50.767 319.233 40 306 40 L 204 40 z M 204 60 L 306 60 C 308.206 60 310 61.794 310 64 L 310 80 L 200 80 L 200 64 C 200 61.794 201.794 60 204 60 z M 130 110 C 124.477 110 120 114.477 120 120 L 120 427.33203 C 120 456.37303 143.62697 480 172.66797 480 L 337.33203 480 C 366.37303 480 390 456.37303 390 427.33203 L 390 120 C 390 114.477 385.522 110 380 110 C 374.478 110 370 114.477 370 120 L 370 427.33203 C 370 445.34503 355.34598 460 337.33398 460 L 172.66797 460 C 154.65497 460 140 445.34503 140 427.33203 L 140 120 C 140 114.477 135.523 110 130 110 z" />
</svg>