<svg fill="#000000" xmlns="http://www.w3.org/2000/svg" viewBox="0 0 512 512" width="64px"
    height="64px">
    <path
        d="M 256 70 C 255.94598 70 255.89366 70.006959 255.83984 70.007812 C 255.59654 70.011682 255.35392 70.02335 255.11133 70.044922 C 254.97655 70.0568 254.84413 70.074625 254.71094 70.091797 C 254.54047 70.113896 254.37057 70.139016 254.20117 70.169922 C 254.05999 70.1956 253.92029 70.22432 253.78125 70.255859 C 253.6254 70.291253 253.47079 70.332044 253.31641 70.375 C 253.17233 70.415093 253.0281 70.453696 252.88672 70.5 C 252.7361 70.549297 252.58811 70.607409 252.43945 70.664062 C 252.3056 70.715153 252.17009 70.761754 252.03906 70.818359 C 251.8193 70.913169 251.60464 71.01952 251.39062 71.130859 C 251.34286 71.155707 251.29354 71.1755 251.24609 71.201172 C 251.1296 71.26423 251.0199 71.336806 250.90625 71.404297 C 250.76503 71.488089 250.6223 71.568812 250.48438 71.660156 C 250.35349 71.746889 250.22998 71.842916 250.10352 71.935547 C 250.00428 72.008156 249.90184 72.073672 249.80469 72.150391 L 249.63867 72.283203 L 173.80469 132.15039 C 169.46969 135.57239 168.73034 141.86131 172.15234 146.19531 C 174.12534 148.69531 177.05181 150 180.00781 150 C 182.17681 150 184.36227 149.29666 186.19727 147.84766 L 246 100.63672 L 246 330 C 246 335.522 250.477 340 256 340 C 261.522 340 266 335.522 266 330 L 266 100.98047 L 323.70312 147.76758 C 327.99212 151.24558 334.28858 150.58888 337.76758 146.29688 C 341.24558 142.00788 340.58883 135.71142 336.29883 132.23242 L 262.36133 72.283203 L 262.29883 72.232422 C 262.09725 72.069021 261.88837 71.918912 261.67773 71.773438 C 261.6511 71.755042 261.62638 71.732952 261.59961 71.714844 C 261.54399 71.677165 261.48415 71.645955 261.42773 71.609375 C 261.22477 71.47799 261.02038 71.34961 260.81055 71.234375 C 260.71803 71.183481 260.62162 71.139818 260.52734 71.091797 C 260.35726 71.005341 260.18738 70.919864 260.01367 70.84375 C 259.87839 70.784349 259.7399 70.731238 259.60156 70.677734 C 259.4578 70.622255 259.31362 70.568125 259.16797 70.519531 C 259.02932 70.473191 258.88933 70.430981 258.74805 70.390625 C 258.58611 70.344401 258.42339 70.303515 258.25977 70.265625 C 258.12625 70.234732 257.99293 70.205173 257.85742 70.179688 C 257.66691 70.143765 257.47512 70.11657 257.2832 70.091797 C 257.17431 70.077804 257.06699 70.057335 256.95703 70.046875 C 256.64789 70.017233 256.33764 70.002822 256.02734 70.001953 C 256.0181 70.001928 256.00925 70 256 70 z M 71 171 C 65.477 171 61 175.477 61 181 L 61 391 C 61 435.112 96.888 471 141 471 L 371 471 C 415.112 471 451 435.112 451 391 L 451 181 C 451 175.477 446.522 171 441 171 C 435.478 171 431 175.477 431 181 L 431 391 C 431 424.084 404.084 451 371 451 L 141 451 C 107.916 451 81 424.084 81 391 L 81 181 C 81 175.477 76.523 171 71 171 z" />
</svg>