<svg fill="#000000" xmlns="http://www.w3.org/2000/svg" viewBox="0 0 512 512" width="64px"
    height="64px">
    <path
        d="M257 232c-43.009 0-78-34.991-78-78s34.991-78 78-78c43.01 0 78 34.991 78 78S300.01 232 257 232zM257 96c-31.981 0-58 26.019-58 58s26.019 58 58 58 58-26.019 58-58S288.981 96 257 96zM410 420c-5.522 0-10-4.478-10-10v-93.178C400 288.799 377.201 266 349.178 266H164.822C136.799 266 114 288.799 114 316.822V410c0 5.522-4.477 10-10 10s-10-4.478-10-10v-93.178C94 277.771 125.771 246 164.822 246h184.355C388.229 246 420 277.771 420 316.822V410C420 415.522 415.522 420 410 420z" />
</svg>